<svg viewBox="0 0 261 77" fill="none" xmlns="http://www.w3.org/2000/svg">
<path d="M122.195 40.8711C122.188 40.8555 122.18 40.8398 122.176 40.8203C122.031 40.707 121.887 40.5977 121.746 40.4883C120.512 40.3164 119.336 39.9102 118.234 39.2656C117.586 38.7617 116.938 38.2617 116.289 37.7617C115.102 36.5586 114.277 35.1406 113.82 33.5117C113.703 32.6562 113.59 31.8047 113.477 30.9492C113.426 29.6211 113.699 28.3867 114.305 27.2383C114.664 26.1367 115.254 25.1758 116.078 24.3477C116.066 24.2461 116.051 24.1484 116.039 24.0508C115.547 23.668 115.051 23.2852 114.555 22.8984C113.367 21.6992 112.543 20.2812 112.086 18.6523V18.6484C111.969 18.3437 111.859 18.0273 111.77 17.7031C111.656 16.8477 111.543 15.9961 111.426 15.1406C111.387 14.1328 111.543 13.1836 111.875 12.2773C111.953 12.0078 112.051 11.7422 112.164 11.4805C112.137 11.3945 112.113 11.3086 112.086 11.2227C112.07 11.1016 112.055 10.9883 112.039 10.8711C111.824 10.4961 111.641 10.0977 111.477 9.69141C105.852 5.1875 98.7187 2.49609 90.9609 2.49609C72.7812 2.49609 58.0508 17.2695 58.0508 35.4961C58.0508 53.7227 72.7812 68.4961 90.9609 68.4961C106.687 68.4961 119.836 57.4336 123.094 42.6445C123.066 42.4453 123.043 42.25 123.016 42.0547C122.719 41.6836 122.441 41.2891 122.195 40.8711ZM90.9609 44.0312C86.2578 44.0312 82.4453 40.2109 82.4453 35.4961C82.4453 30.7812 86.2578 26.957 90.9609 26.957C95.6602 26.957 99.4727 30.7812 99.4727 35.4961C99.4727 40.2109 95.6602 44.0312 90.9609 44.0312Z" fill="#EF9230"/>
<path d="M67.418 16.7539C67.418 16.7539 63.2812 18.2969 60.6797 30.5078C60.6797 30.5078 60.7969 34.3008 60.0898 37.9766C59.3789 41.6523 59.8515 47.6992 61.7422 50.4258C63.6367 53.1523 66.1172 54.5742 68.957 56.4727C71.793 58.3711 73.5664 58.9609 74.75 60.5039C75.9336 62.0469 78.2969 63.707 78.2969 62.1641C78.2969 60.6211 75.2226 56.8281 73.0937 55.0508C70.9648 53.2734 66.2383 48.5273 66.5898 44.8555C66.9453 41.1797 66.8281 30.9805 66.9453 29.2031C67.0625 27.4258 68.4844 17.3477 67.418 16.7539Z" fill="#D36C27"/>
<path d="M116.039 24.0508C115.547 23.668 115.051 23.2852 114.555 22.8985C113.367 21.6993 112.543 20.2813 112.086 18.6524V18.6485C111.969 18.3438 111.859 18.0274 111.77 17.7032C111.656 16.8477 111.543 15.9961 111.426 15.1407C111.414 14.8516 111.422 14.5664 111.441 14.2852C111.102 14.0938 110.809 14.1641 110.641 14.6446C110.145 16.1016 111.84 20.6875 113.285 23.0586C113.715 23.7696 114.285 24.8086 114.828 26.0078C115.156 25.4024 115.574 24.8477 116.078 24.3438L116.039 24.0508Z" fill="#D36C27"/>
<path d="M118.234 39.2695C117.586 38.7695 116.937 38.2656 116.289 37.7656C115.961 37.4336 115.66 37.0781 115.387 36.7148C113.762 40.918 111.387 48.1211 110.809 49.5195C110.125 51.1641 105.547 60.25 106.363 61.1562C106.363 61.1562 110.777 61.0352 117.156 50.3086C117.156 50.3086 118.266 46.6758 120.113 43.4258C120.551 42.6563 120.941 41.6094 121.27 40.4102C120.211 40.2109 119.199 39.8281 118.234 39.2695Z" fill="#D36C27"/>
<path d="M116.289 37.7617C115.102 36.5585 114.277 35.1406 113.82 33.5117C113.703 32.6562 113.59 31.8046 113.477 30.9492C113.426 29.621 113.699 28.3867 114.305 27.2382C114.664 26.1367 115.254 25.1757 116.078 24.3476C116.066 24.246 116.051 24.1484 116.039 24.0507C115.547 23.6679 115.051 23.2851 114.555 22.8984C113.367 21.6992 112.543 20.2812 112.086 18.6523V18.6484C111.969 18.3437 111.859 18.0273 111.77 17.7031C111.656 16.8476 111.543 15.996 111.426 15.1406C111.41 14.7187 111.426 14.3085 111.477 13.9023C110.324 13.2343 109.145 12.5937 108.105 11.832C105.59 9.99604 103.484 7.15229 100.461 6.16791C97.5469 5.21869 94.1914 6.24604 90.9609 6.24604C87.7266 6.24604 84.375 5.21869 81.457 6.16791C78.4336 7.15229 76.3281 9.99213 73.8164 11.832C71.2734 13.6835 67.9336 14.8242 66.0859 17.371C64.2578 19.8906 64.1953 23.4218 63.2148 26.4531C62.2695 29.3788 60.2188 32.2538 60.2188 35.4921C60.2188 38.7304 62.2695 41.6093 63.2148 44.5312C64.1953 47.5624 64.2578 51.0859 66.0859 53.6132C67.9336 56.1601 71.2734 57.3007 73.8164 59.1523C76.3281 60.9843 78.4336 63.832 81.457 64.8163C84.375 65.7656 87.7266 64.7382 90.9609 64.7382C94.1914 64.7382 97.5469 65.7656 100.461 64.8163C103.484 63.832 105.59 60.9921 108.105 59.1523C110.648 57.3007 113.984 56.1562 115.832 53.6132C117.66 51.0898 117.727 47.5624 118.707 44.5312C119.168 43.0976 119.898 41.6835 120.516 40.2304C119.727 40.0117 118.965 39.6874 118.234 39.2617C117.582 38.7617 116.938 38.2617 116.289 37.7617ZM90.9609 45.2968C85.5586 45.2968 81.1875 40.9101 81.1875 35.496C81.1875 30.082 85.5586 25.6953 90.9609 25.6953C96.3594 25.6953 100.734 30.082 100.734 35.496C100.734 40.9101 96.3594 45.2968 90.9609 45.2968Z" fill="#F16B97"/>
<path d="M82.4062 13.4023C82.4062 13.4023 78.9375 12.4531 76.2578 17.1953C73.5781 21.9413 72.0039 21.7812 72.789 24.9413C73.5781 28.1054 70.582 32.6874 73.7382 32.2148C76.8906 31.7421 76.5742 30.1601 77.6796 28.4218C78.7812 26.6835 79.5703 24.3124 82.8789 23.2031C86.1914 22.0976 88.3984 21.1484 89.0273 19.4101C89.6601 17.6718 88.871 13.0859 82.4062 13.4023Z" fill="#F27F9D"/>
<path d="M79.2774 18.793C81.6211 16.6445 84.2813 15.2812 85.4805 17.1953C86.7657 19.2461 84.5352 18.3828 81.2266 20.043C77.9141 21.7031 76.8125 24.8633 76.2032 24.7226C75.5196 24.5625 77.4805 20.4453 79.2774 18.793Z" fill="#F7AFC1"/>
<path d="M72.4766 40.2773C72.4766 40.2773 67.4297 40.2773 68.375 43.5977C69.3243 46.918 69.9532 47.5508 71.6875 51.1836C73.4219 54.8203 72.6329 57.8242 76.7305 58.3008C80.8321 58.7734 90.7618 60.1953 84.1407 56.4023C77.5196 52.6094 79.0977 56.0859 77.0469 51.6602C74.9961 47.2344 76.2579 49.1289 74.9961 45.0195C73.7383 40.9102 73.7383 40.9102 72.4766 40.2773Z" fill="#F27F9D"/>
<path d="M93.9961 24.6289C93.9961 24.6289 96.8321 23.2031 98.5664 25.7344C100.301 28.2617 101.402 35.8515 103.297 37.9062C105.188 39.9609 99.3477 45.4453 96.8633 45.4453C95.0664 45.4453 96.4883 43.6484 96.9805 43.1953C97.543 42.6758 100.465 39.7226 100.695 37.1953C101.043 33.4062 100.082 29.7617 96.4024 27.3789C95.6602 26.8984 92.3242 25.5976 93.9961 24.6289Z" fill="#F7B0BF"/>
<path d="M85.4415 25.2188C85.4415 25.2188 84.6524 27.4336 81.1876 29.3281C77.7188 31.2266 77.8751 33.9141 78.9805 35.3359C80.0821 36.7617 80.5547 42.293 82.4454 43.5586C84.3399 44.8203 84.2891 43.668 82.5547 40.8242C80.8204 37.9766 80.1876 32.168 83.2344 29.1719C85.8907 26.5586 87.4922 25.8516 85.4415 25.2188Z" fill="#EE3D82"/>
<path d="M72.4766 45.3359C72.4766 45.3359 72.0039 46.2852 72.9492 49.4453C73.8945 52.6094 74.2109 54.9805 75.7852 55.9258C77.3633 56.875 79.8867 57.5078 80.1992 57.1914C80.5156 56.875 78.4648 57.1914 77.3633 55.4531C76.2578 53.7148 73.8945 44.3867 72.4766 45.3359Z" fill="#F7B2C3"/>
<path d="M80.6602 63.4727C79.3594 62.4063 78.4141 60.2695 77.4688 59.4414C76.5234 58.6094 71.0859 56.2383 70.6094 55.1719C70.1367 54.1055 69.5469 53.3945 68.8359 52.3281C68.1289 51.2617 67.418 51.1406 66.2383 48.4141C65.0547 45.6875 65.5273 44.7383 65.0547 43.5547C64.582 42.3672 64.3438 40.8281 63.9883 39.6406C63.6367 38.457 64.6992 34.6602 64.3438 33.3555C63.9883 32.0547 65.0547 30.3945 65.0547 29.4453C65.0547 28.4961 64.8164 26.125 65.1719 24.8203C65.5273 23.5156 66.4727 20.1953 67.0625 18.8906C67.6562 17.5898 69.9023 15.8086 73.4492 13.6758C76.9961 11.543 78.6523 9.17187 79.0078 8.93359C79.2266 8.78516 79.2617 7.91406 79.2617 7.26953C77.3164 8.57031 75.6797 10.4805 73.8164 11.8398C71.2734 13.6914 67.9336 14.832 66.0859 17.3789C64.2578 19.8984 64.1953 23.4297 63.2148 26.4609C62.2695 29.3867 60.2188 32.2617 60.2188 35.5C60.2188 38.7383 62.2695 41.6172 63.2148 44.5391C64.1953 47.5703 64.2578 51.0937 66.0859 53.6211C67.9336 56.168 71.2734 57.3086 73.8164 59.1602C76.3281 60.9961 78.4336 63.8398 81.457 64.8242C81.6992 64.9023 81.9375 64.9648 82.1836 65.0156C81.7617 64.5 81.2109 63.9219 80.6602 63.4727Z" fill="#F7B1C2"/>
<path d="M113.82 33.5117C113.703 32.6562 113.59 31.8047 113.477 30.9492C113.426 29.6211 113.699 28.3867 114.305 27.2383C114.336 27.1406 114.371 27.043 114.406 26.9414C112.43 22.8672 108.414 18.7734 106.211 16.5664C102.902 13.2461 98.8047 14.8242 97.6992 15.7734C96.5977 16.7226 98.8047 19.2539 102.43 20.9922C106.055 22.7304 106.371 25.8906 106.371 25.8906C106.211 30.793 108.734 32.0586 108.418 37.9062C108.105 43.7539 105.109 45.3359 100.063 50.0781C95.0196 54.8203 97.3828 55.1367 98.8047 54.8203C100.223 54.5039 103.375 52.4492 105.898 52.9258C108.418 53.3984 110.469 50.8672 111.414 47.2344C112.207 44.1914 113.332 39.9297 114.598 35.4726C114.273 34.8555 114.012 34.2031 113.82 33.5117Z" fill="#F27F9D"/>
<path d="M106.984 22.3398C106.984 22.3398 108.816 24.7109 109.113 28.5039C109.41 32.2969 109.172 33.6601 109.883 34.789C110.59 35.914 113.605 32.6523 112.246 29.8086C110.887 26.9609 107.516 20.1445 106.984 22.3398Z" fill="#F7AFC2"/>
<path d="M103.203 50.2617C102.094 49.7656 105.922 48.543 106.691 46.5859C107.457 44.6289 107.754 47.4727 107.754 47.4727C107.754 47.4727 108.402 50.1992 107.34 50.6758C106.277 51.1484 103.734 50.4961 103.203 50.2617Z" fill="#F7AFC2"/>
<path d="M118.414 39.3711C118.141 39.8984 117.805 40.4102 117.406 40.9102C113.621 45.6523 112.52 46.7578 111.73 50.5547C110.941 54.3477 110.785 52.1328 105.426 56.5586C100.063 60.9844 101.168 61.4609 98.0156 63.3594C94.8633 65.2539 86.8125 63.7539 81.457 64.8203C84.375 65.7695 87.7266 64.7422 90.9609 64.7422C94.1914 64.7422 97.5469 65.7695 100.461 64.8203C103.484 63.8359 105.59 60.9961 108.105 59.1562C110.648 57.3047 113.984 56.1602 115.832 53.6172C117.66 51.0937 117.727 47.5664 118.707 44.5352C119.168 43.1016 119.898 41.6875 120.516 40.2344C119.789 40.0312 119.094 39.7461 118.414 39.3711Z" fill="#EE3D82"/>
<path d="M111.711 12.7656C110.762 11.8828 109.777 11.0585 108.805 10.3515C106.293 8.51947 103.484 7.15619 100.461 6.17182C97.5469 5.2226 94.1914 6.24994 90.9609 6.24994C90.1914 6.24994 89.4141 6.19135 88.6406 6.11713C89.2227 6.78119 90.1016 7.60151 91.0781 7.87104C92.8125 8.34369 96.7539 9.29291 101.012 10.082C103.75 10.5937 108.191 12.5429 111.426 14.5429C111.449 13.9335 111.547 13.3398 111.711 12.7656Z" fill="#EE3D82"/>
<path d="M97.3359 60.625C97.2383 60.625 97.1367 60.5938 97.0508 60.5313L95.1094 59.0547C94.9023 58.8946 94.8633 58.5977 95.0195 58.3907C95.1758 58.1797 95.4727 58.1407 95.6797 58.3008L97.6211 59.7774C97.8281 59.9336 97.8672 60.2305 97.7109 60.4414C97.6211 60.5625 97.4805 60.625 97.3359 60.625Z" fill="#AADFF1"/>
<path d="M76.1016 58.9492C75.9453 58.9492 75.793 58.8711 75.7031 58.7343L74.3555 56.6172C74.2149 56.3945 74.2813 56.1015 74.4961 55.9609C74.7188 55.8164 75.0078 55.8828 75.1524 56.1054L76.5 58.2226C76.6406 58.4453 76.5742 58.7383 76.3594 58.8789C76.2735 58.9258 76.1875 58.9492 76.1016 58.9492Z" fill="#00A651"/>
<path d="M102.797 56.1563C102.789 56.1563 102.777 56.1563 102.77 56.1563C102.508 56.1406 102.309 55.9141 102.324 55.6563L102.492 52.8125C102.508 52.5508 102.734 52.3555 102.992 52.3672C103.254 52.3828 103.453 52.6094 103.438 52.8672L103.27 55.7109C103.25 55.9649 103.043 56.1563 102.797 56.1563Z" fill="#FFF200"/>
<path d="M72.9766 18.7696C72.8868 18.7696 72.793 18.7422 72.711 18.6914L70.4375 17.1641C70.2227 17.0196 70.1602 16.7266 70.3086 16.5078C70.4532 16.293 70.7461 16.2344 70.961 16.3789L73.2344 17.9063C73.4532 18.0508 73.5118 18.3438 73.3672 18.5625C73.2813 18.6953 73.129 18.7696 72.9766 18.7696Z" fill="white"/>
<path d="M71.9102 36.9102C71.7813 36.9102 71.6524 36.8555 71.5586 36.75L69.6367 34.5625C69.4649 34.3633 69.4844 34.0664 69.6797 33.8946C69.8789 33.7227 70.1758 33.7422 70.3477 33.9375L72.2656 36.1289C72.4414 36.3242 72.4219 36.625 72.2227 36.7969C72.1328 36.8711 72.0235 36.9102 71.9102 36.9102Z" fill="#00AEEF"/>
<path d="M66 41.1797C65.8555 41.1797 65.7109 41.1094 65.6211 40.9883L63.9883 38.793C63.832 38.5821 63.875 38.2852 64.0898 38.1289C64.2969 37.9688 64.5938 38.0118 64.75 38.2266L66.3828 40.4219C66.5391 40.6328 66.4961 40.9297 66.2852 41.086C66.1953 41.1524 66.0977 41.1797 66 41.1797Z" fill="#FFF200"/>
<path d="M68.4258 52.4571C68.4023 52.4571 68.3867 52.4571 68.3672 52.4532C68.1094 52.4219 67.9219 52.1875 67.9531 51.9297L68.25 49.4219C68.2812 49.1602 68.5156 48.9766 68.7734 49.0079C69.0351 49.0391 69.2187 49.2735 69.1875 49.5313L68.8945 52.0391C68.8672 52.2813 68.6601 52.4571 68.4258 52.4571Z" fill="#AADFF1"/>
<path d="M76.2851 50.5468C76.2031 50.5468 76.1171 50.5234 76.0429 50.4804C75.8164 50.3476 75.7461 50.0546 75.8828 49.8281L77.2226 47.6211C77.3554 47.3945 77.6445 47.3242 77.8711 47.4609C78.0976 47.5976 78.1679 47.8906 78.0273 48.1132L76.6914 50.3242C76.6015 50.4648 76.4492 50.5468 76.2851 50.5468Z" fill="#00AEEF"/>
<path d="M73.5664 44.1406L70.5508 44.1328C70.293 44.1328 70.0781 43.9219 70.0781 43.6602C70.0781 43.3984 70.293 43.1875 70.5508 43.1875L73.5664 43.1953C73.8281 43.1953 74.0391 43.4062 74.0391 43.668C74.0391 43.9336 73.8281 44.1406 73.5664 44.1406Z" fill="white"/>
<path d="M80.5429 42.8398C80.4726 42.8398 80.4023 42.8242 80.332 42.7851L77.9999 41.6211C77.7695 41.5039 77.6757 41.2187 77.789 40.9843C77.9062 40.75 78.1913 40.6562 78.4218 40.7695L80.7538 41.9375C80.9843 42.0547 81.0781 42.3398 80.9648 42.5742C80.8828 42.7422 80.7148 42.8398 80.5429 42.8398Z" fill="#EC008C"/>
<path d="M103.231 35.5469C103.125 35.5469 103.023 35.5156 102.938 35.4492C102.734 35.2852 102.691 34.9883 102.856 34.7852L104.648 32.4727C104.809 32.2656 105.106 32.2266 105.309 32.3906C105.516 32.5508 105.555 32.8477 105.395 33.0547L103.598 35.3633C103.508 35.4844 103.367 35.5469 103.231 35.5469Z" fill="#EC008C"/>
<path d="M108.332 41.1797C108.254 41.1797 108.172 41.1602 108.098 41.1133L105.566 39.6602C105.34 39.5313 105.262 39.2422 105.395 39.0117C105.523 38.7891 105.812 38.707 106.039 38.8398L108.57 40.293C108.793 40.4219 108.871 40.7109 108.742 40.9414C108.656 41.0938 108.496 41.1797 108.332 41.1797Z" fill="#39B54A"/>
<path d="M115.289 41.0078C115.207 41.0078 115.125 40.9883 115.051 40.9414C114.824 40.8086 114.75 40.5195 114.879 40.2929L115.965 38.4531C116.098 38.2265 116.387 38.1523 116.609 38.2812C116.836 38.414 116.91 38.7031 116.777 38.9297L115.695 40.7695C115.613 40.9258 115.453 41.0078 115.289 41.0078Z" fill="#00AEEF"/>
<path d="M102.305 46.8712C102.277 46.8712 102.254 46.8712 102.23 46.8672C101.973 46.8243 101.793 46.586 101.836 46.3243L102.27 43.4922C102.313 43.2305 102.551 43.0547 102.813 43.0938C103.07 43.1329 103.25 43.3751 103.207 43.6368L102.773 46.4688C102.734 46.7032 102.531 46.8712 102.305 46.8712Z" fill="#AADFF1"/>
<path d="M114.356 48.4297C114.199 48.4297 114.047 48.3516 113.957 48.2149L112.434 45.8203C112.289 45.6016 112.352 45.3086 112.574 45.168C112.793 45.0235 113.086 45.086 113.227 45.3086L114.754 47.6993C114.895 47.9219 114.832 48.2149 114.613 48.3555C114.527 48.4063 114.441 48.4297 114.356 48.4297Z" fill="white"/>
<path d="M110.234 52.664C110.137 52.664 110.039 52.6367 109.957 52.5742L108.172 51.289C107.957 51.1328 107.91 50.8359 108.066 50.6289C108.219 50.414 108.516 50.3672 108.723 50.5195L110.508 51.8047C110.723 51.9609 110.769 52.2578 110.613 52.4648C110.527 52.5937 110.383 52.664 110.234 52.664Z" fill="#EC008C"/>
<path d="M85.3282 50.3047C85.0977 50.3047 84.8985 50.1367 84.8633 49.9062C84.8243 49.6484 84.9961 49.4023 85.2578 49.3633L88.1563 48.8984C88.418 48.8555 88.6602 49.0312 88.6993 49.293C88.7383 49.5508 88.5625 49.793 88.3047 49.832L85.4024 50.3008C85.3789 50.3008 85.3516 50.3047 85.3282 50.3047Z" fill="#FFF200"/>
<path d="M82.6914 57.3516C82.5391 57.3516 82.3867 57.2734 82.293 57.1367L80.2188 53.9649C80.0781 53.7461 80.1367 53.4492 80.3594 53.3086C80.5742 53.1641 80.8711 53.2227 81.0117 53.4453L83.086 56.6211C83.2266 56.8359 83.168 57.1328 82.9492 57.2734C82.8672 57.3242 82.7774 57.3516 82.6914 57.3516Z" fill="white"/>
<path d="M90.1875 57.832C90.0274 57.832 89.8672 57.75 89.7774 57.5977L88.293 55.0586C88.1602 54.832 88.2383 54.5391 88.461 54.4102C88.6875 54.2774 88.9766 54.3555 89.1094 54.5781L90.5938 57.1211C90.7227 57.3477 90.6485 57.6406 90.4258 57.7695C90.3516 57.8125 90.2696 57.832 90.1875 57.832Z" fill="#00AEEF"/>
<path d="M84.1562 62.4961C83.9219 62.4961 83.7148 62.3164 83.6875 62.0781C83.6562 61.8164 83.8437 61.582 84.1015 61.5508L86.8711 61.2226C87.1328 61.1914 87.3672 61.3789 87.3984 61.6367C87.4297 61.8984 87.2422 62.1328 86.9844 62.164L84.2109 62.4922C84.1953 62.4922 84.1758 62.4961 84.1562 62.4961Z" fill="#EC008C"/>
<path d="M95 53.1914C94.7383 53.1914 94.5273 52.9805 94.5273 52.7188V48.9258C94.5273 48.6641 94.7383 48.4492 95 48.4492C95.2617 48.4492 95.4727 48.6641 95.4727 48.9258V52.7188C95.4727 52.9805 95.2617 53.1914 95 53.1914Z" fill="white"/>
<path d="M84.6797 11.418C84.5938 11.418 84.5039 11.3946 84.4258 11.3438L82.3086 9.97269C82.0899 9.83207 82.0235 9.5391 82.168 9.31644C82.3086 9.09379 82.6016 9.03129 82.8203 9.17582L84.9375 10.5469C85.1602 10.6875 85.2227 10.9805 85.0782 11.2032C84.9883 11.3399 84.8399 11.418 84.6797 11.418Z" fill="#AADFF1"/>
<path d="M105.984 14.6484C105.891 14.6484 105.789 14.6211 105.707 14.5586L104.035 13.3398C103.824 13.1875 103.777 12.8906 103.93 12.6757C104.086 12.4609 104.379 12.414 104.594 12.5703L106.266 13.7851C106.477 13.9414 106.523 14.2382 106.371 14.4492C106.277 14.582 106.129 14.6484 105.984 14.6484Z" fill="#00AEEF"/>
<path d="M78.2968 15.6875C78.2929 15.6875 78.2851 15.6875 78.2812 15.6875C78.0195 15.6797 77.8164 15.457 77.8242 15.1992L77.8984 12.8476C77.9062 12.5859 78.1289 12.3789 78.3867 12.3867C78.6484 12.3945 78.8515 12.6172 78.8437 12.8789L78.7695 15.2304C78.7617 15.4804 78.5547 15.6875 78.2968 15.6875Z" fill="#00A651"/>
<path d="M113.766 23.7852C113.625 23.7852 113.488 23.7266 113.398 23.6055L111.48 21.2266C111.316 21.0234 111.348 20.7266 111.555 20.5586C111.758 20.3945 112.055 20.4258 112.219 20.6328L114.133 23.0117C114.301 23.2148 114.27 23.5117 114.062 23.6797C113.973 23.75 113.871 23.7852 113.766 23.7852Z" fill="#39B54A"/>
<path d="M103.781 22.457C103.699 22.457 103.621 22.4375 103.543 22.3945C103.32 22.2617 103.242 21.9727 103.375 21.7461L104.973 19.0078C105.102 18.7812 105.395 18.7031 105.617 18.8359C105.844 18.9687 105.922 19.2617 105.785 19.4844L104.191 22.2227C104.105 22.3711 103.941 22.457 103.781 22.457Z" fill="#FFF200"/>
<path d="M123.527 26.1015C123.437 26.0586 123.352 25.9883 123.301 25.8906C123.18 25.6601 123.27 25.375 123.5 25.25L124.77 24.664C125 24.539 125.285 24.6328 125.406 24.8594C125.527 25.0937 125.437 25.3789 125.211 25.5L123.941 26.0898C123.805 26.1562 123.656 26.1562 123.527 26.1015Z" fill="#EC008C"/>
<path d="M118.988 15.5156C118.894 15.5156 118.797 15.4883 118.715 15.4258L117.559 14.5664C117.348 14.4101 117.301 14.1133 117.453 13.9023C117.605 13.6875 117.902 13.6406 118.113 13.7929L119.269 14.6562C119.484 14.8086 119.531 15.1054 119.375 15.3203C119.281 15.4492 119.137 15.5156 118.988 15.5156Z" fill="#00AEEF"/>
<path d="M122.934 19.5313C122.852 19.5313 122.773 19.5118 122.699 19.4688C122.473 19.3399 122.394 19.0469 122.531 18.8204L123.922 16.4844C124.051 16.2618 124.344 16.1797 124.566 16.3165C124.793 16.4454 124.871 16.7383 124.738 16.9649L123.344 19.3008C123.258 19.4454 123.098 19.5313 122.934 19.5313Z" fill="#FFF200"/>
<path d="M110.969 27.4883C110.965 27.4883 110.961 27.4883 110.957 27.4883L108.32 27.4258C108.062 27.418 107.852 27.1992 107.859 26.9375C107.867 26.6836 108.078 26.4766 108.332 26.4766C108.336 26.4766 108.34 26.4766 108.344 26.4766L110.98 26.5391C111.242 26.5469 111.449 26.7656 111.441 27.0273C111.434 27.2812 111.227 27.4883 110.969 27.4883Z" fill="#00AEEF"/>
<path d="M100.883 27.543C100.695 27.543 100.516 27.4297 100.441 27.2422L99.4453 24.6953C99.3516 24.4492 99.4687 24.1758 99.7148 24.0781C99.957 23.9844 100.23 24.1015 100.328 24.3476L101.324 26.8945C101.422 27.1406 101.301 27.414 101.059 27.5117C101 27.5312 100.937 27.543 100.883 27.543Z" fill="#AADFF1"/>
<path d="M79.6211 34.2696C79.539 34.2696 79.4531 34.2462 79.375 34.1993L77.1054 32.8087C76.8828 32.668 76.8164 32.3829 76.9492 32.1563C77.0859 31.9297 77.375 31.8633 77.5976 31.9962L79.8711 33.3907C80.0937 33.5274 80.1601 33.8165 80.0273 34.0391C79.9375 34.1915 79.7773 34.2696 79.6211 34.2696Z" fill="#39B54A"/>
<path d="M123.625 36.3906C123.543 36.3906 123.457 36.3671 123.379 36.3203L122.273 35.5742C122.047 35.4374 121.98 35.1484 122.117 34.9218C122.254 34.6953 122.543 34.6289 122.766 34.7656L123.875 35.5117C124.098 35.6484 124.164 35.9374 124.031 36.164C123.937 36.3124 123.781 36.3906 123.625 36.3906Z" fill="#39B54A"/>
<path d="M64.3438 32.4063C64.25 32.4063 64.1563 32.3789 64.0742 32.3164C63.8594 32.168 63.8086 31.8711 63.9571 31.6563L65.375 29.6328C65.5235 29.4219 65.8203 29.3711 66.0313 29.5195C66.2461 29.668 66.2969 29.9648 66.1446 30.1797L64.7305 32.2031C64.6406 32.332 64.4922 32.4063 64.3438 32.4063Z" fill="#00A651"/>
<path d="M81.1094 26.6445C80.9297 26.6445 80.7539 26.5352 80.6758 26.3555L79.6406 23.9336C79.5391 23.6953 79.6484 23.418 79.8906 23.3125C80.1289 23.207 80.4063 23.3203 80.5117 23.5586L81.5469 25.9805C81.6523 26.2188 81.5391 26.4961 81.3008 26.6016C81.2383 26.6289 81.168 26.6445 81.1094 26.6445Z" fill="#AADFF1"/>
<path d="M68.836 23.8672C68.6758 23.8672 68.5196 23.7852 68.4336 23.6368L66.9961 21.2227C66.8633 21 66.9375 20.7071 67.1641 20.5743C67.3868 20.4414 67.6797 20.5157 67.8086 20.7422L69.2383 23.1563C69.375 23.3828 69.3008 23.6758 69.0743 23.8047C69.0039 23.8438 68.9219 23.8672 68.836 23.8672Z" fill="#EC008C"/>
<path d="M73.5273 28.2578C73.4492 28.2578 73.371 28.2383 73.2968 28.1953C73.0664 28.0664 72.9882 27.7773 73.1171 27.5469L74.457 25.1719C74.5898 24.9414 74.8749 24.8633 75.1054 24.9961C75.332 25.125 75.4101 25.414 75.2812 25.6445L73.9414 28.0195C73.8554 28.1719 73.6914 28.2578 73.5273 28.2578Z" fill="#FFF200"/>
<path d="M92.0976 22.6055C91.8672 22.6055 91.6601 22.4297 91.6289 22.1914C91.5937 21.9336 91.7812 21.6953 92.0351 21.6602L95.0273 21.2657C95.289 21.2266 95.5234 21.4141 95.5586 21.6719C95.5937 21.9336 95.4101 22.168 95.1523 22.2032L92.1601 22.5977C92.1367 22.5977 92.1172 22.6055 92.0976 22.6055Z" fill="white"/>
<path d="M99.9375 16.6368C99.7813 16.6368 99.6211 16.5587 99.5313 16.4063L97.957 13.8087C97.8203 13.586 97.8906 13.2969 98.1133 13.1563C98.3398 13.0235 98.625 13.0899 98.7617 13.3165L100.34 15.9141C100.473 16.1368 100.406 16.4258 100.184 16.5665C100.109 16.6133 100.02 16.6368 99.9375 16.6368Z" fill="#EC008C"/>
<path d="M92.6562 16.8945C92.4804 16.8945 92.3125 16.793 92.2304 16.6289L90.9961 14.1133C90.8828 13.8828 90.9765 13.5977 91.2109 13.4766C91.4453 13.3633 91.7265 13.457 91.8476 13.6953L93.082 16.2109C93.1953 16.4414 93.1015 16.7266 92.8633 16.8438C92.7968 16.8789 92.7265 16.8945 92.6562 16.8945Z" fill="#00A651"/>
<path d="M93.1485 9.46096C92.9219 9.46096 92.7266 9.3008 92.6836 9.07424C92.6367 8.82033 92.8047 8.57033 93.0664 8.52346L96.1758 7.95315C96.4297 7.90627 96.6797 8.07424 96.7266 8.33596C96.7735 8.59377 96.6055 8.84377 96.3438 8.89065L93.2344 9.45705C93.2071 9.45705 93.1797 9.46096 93.1485 9.46096Z" fill="#FFF200"/>
<path d="M86.2461 21.5078C86.125 21.5078 86.0039 21.4609 85.9102 21.3711L83.9961 19.4609C83.8086 19.2773 83.8086 18.9766 83.9922 18.7891C84.1758 18.6055 84.4766 18.6055 84.6602 18.7852L86.5781 20.6953C86.7617 20.8789 86.7617 21.1797 86.582 21.3672C86.4883 21.4609 86.3672 21.5078 86.2461 21.5078Z" fill="#EC008C"/>
<path d="M68.6015 12.6055C68.6015 12.6055 73.0937 8.6914 75.2226 7.86327C77.3515 7.03124 75.1054 10.2344 72.5039 11.418C69.9023 12.6055 66.8281 14.3828 66.8281 14.7383C66.8281 15.0937 66.5898 14.3828 68.6015 12.6055Z" fill="#F8AD53"/>
<path d="M111.875 12.2773C111.93 12.082 112 11.8945 112.074 11.7031C111.238 10.6992 109.398 9.23828 108.453 9.16406C108.453 9.16406 109.984 11.9063 111.785 12.5391C111.813 12.4492 111.844 12.3633 111.875 12.2773Z" fill="#F8AD53"/>
<path d="M85.8633 66.4375C87.5195 66.4375 91.6562 65.25 93.1953 66.082C94.7305 66.9102 92.1289 68.332 88.1094 67.7422C84.0898 67.1485 83.1445 66.4375 85.8633 66.4375Z" fill="#F8AD53"/>
<path d="M118.148 51.4961C118.148 51.4961 118.855 48.6524 120.156 46.3984C121.457 44.1445 121.574 45.6875 120.867 46.875C120.156 48.0586 118.5 52.8008 117.793 53.3945C117.082 53.9883 118.027 52.207 118.148 51.4961Z" fill="#F8AD53"/>
<path d="M87.875 3.94531C87.875 3.94531 91.3047 3.35156 92.7227 3.82812C94.1407 4.30078 92.25 5.36718 88.5821 5.36718C84.918 5.36718 83.9727 3.94531 87.875 3.94531Z" fill="#F8AD53"/>
<path d="M118.109 20.2148L119.293 19.5039L119.059 20.8477L118.109 20.2148Z" fill="#EF9230"/>
<path d="M122.34 29.4844L123.301 30.2539C123.359 30.3008 123.324 30.3984 123.254 30.3984H121.207C121.125 30.3984 121.098 30.2969 121.156 30.2539L122.246 29.4844C122.273 29.4648 122.312 29.4648 122.34 29.4844Z" fill="#F16B97"/>
<path d="M116.773 29.6055C116.773 29.6055 117.723 27.7109 118.113 27.7109C118.508 27.7109 118.668 28.4219 118.668 28.4219C118.668 28.4219 117.406 30 116.934 29.9219" fill="#F27F9D"/>
<path d="M162.996 45.6953C156.992 45.6953 152.125 40.8281 152.125 34.8242C152.125 28.8203 156.992 23.9531 162.996 23.9531C169 23.9531 173.867 28.8203 173.867 34.8242C173.867 40.8281 169 45.6953 162.996 45.6953ZM163.586 1.92578C145.273 1.92578 130.426 16.7734 130.426 35.0859C130.426 53.3984 145.273 68.2422 163.586 68.2422C181.898 68.2422 196.746 53.3984 196.746 35.0859C196.746 16.7734 181.898 1.92578 163.586 1.92578Z" fill="#E8A943"/>
<path d="M133.953 20.4961C137.457 12.5625 149.512 2.52344 165.492 1.96094C164.859 1.92578 164.227 1.90234 163.586 1.90234C145.273 1.90234 130.426 16.75 130.426 35.0625C130.426 36.9961 130.602 38.8867 130.918 40.7305C130.727 33.4805 131.785 25.3984 133.953 20.4961Z" fill="#D7832C"/>
<path d="M163.75 1.92578C145.434 1.92578 130.59 16.7734 130.59 35.0859C130.59 47.5156 137.434 58.3398 147.555 64.0156C147.133 63.6562 140.387 57.8047 138.984 54.4453C137.535 50.9766 133.629 48.5234 132.762 41.2969C131.891 34.0742 130.23 30.0977 135.656 20.4922C141.082 10.8867 147.379 6.04687 157.656 3.58984C157.656 3.58984 167.352 2.14453 172.562 4.60156C177.773 7.05859 182.707 9.50391 185.59 11.2461C188.461 12.9844 195.25 23.7578 196.582 30.4727C194.336 14.3438 180.496 1.92578 163.75 1.92578Z" fill="#E0983D"/>
<path d="M196.746 35.0625C196.746 16.75 181.898 1.90234 163.586 1.90234C161.141 1.90234 158.758 2.17578 156.461 2.67969C159.426 3.33984 163.66 4.19922 166.031 4.28906C169.941 4.43359 173.125 7.89844 178.336 8.62109C183.547 9.34375 189.914 16.5664 190.496 23.0703C191.074 29.5703 194.547 36.6484 194.402 39.6836C194.258 42.7187 191.797 42.4297 189.191 47.7734C186.586 53.1211 183.113 61.6445 177.613 62.6562C172.113 63.668 169.363 67.8555 157.781 65.8359C146.203 63.8125 146.781 58.3203 137.809 54.1328C136.945 53.7305 136.152 53.1914 135.418 52.5508C141.27 61.9531 151.695 68.2188 163.586 68.2188C181.898 68.2188 196.746 53.375 196.746 35.0625Z" fill="#D7832C"/>
<path d="M162.945 45.4883C156.941 45.4883 152.074 40.625 152.074 34.6172C152.074 28.6172 156.941 23.75 162.945 23.75C168.949 23.75 173.816 28.6172 173.816 34.6172C173.816 40.625 168.949 45.4883 162.945 45.4883ZM172.359 25.9922C169.246 23.8984 166.391 20.9961 159.473 22.0078C156.57 22.4336 153.035 25.7422 151.734 28.3789C151.734 28.3789 147.695 34.3008 150.727 39.793C153.758 45.2812 157.859 47.9531 162.648 46.9414C167.437 45.9336 172.074 46.293 174.566 39.8633C177.062 33.4336 175.469 28.0898 172.359 25.9922Z" fill="#E18D37"/>
<path d="M196.746 35.0859C196.746 28.082 194.57 21.5898 190.863 16.2383C192.09 19.8008 193.785 24.793 194.402 26.9961C195.414 30.6055 196.137 42.0195 193.531 46.0664C190.926 50.1094 189.047 56.6133 183.98 59.9336C178.914 63.2578 172.98 68.457 159.086 66.8711C153.238 66.2031 149.082 64.7656 145.809 63.0664C150.945 66.3398 157.043 68.2422 163.586 68.2422C181.898 68.2422 196.746 53.3984 196.746 35.0859Z" fill="#CB7322"/>
<path d="M162.887 45.5195C156.883 45.5195 152.02 40.6602 152.02 34.668C152.02 28.6758 156.883 23.8164 162.887 23.8164C168.891 23.8164 173.758 28.6758 173.758 34.668C173.758 40.6602 168.891 45.5195 162.887 45.5195ZM173.703 29.7891C171.855 26.3242 165.453 22.207 162.086 22.4219C158.723 22.6406 159.047 24.0469 157.094 24.0469C157.094 24.0469 153.293 25.6719 152.316 29.0313C151.34 32.3906 149.406 37.2578 152.316 39.8672C155.227 42.4766 157.41 46.3711 163.332 46.1524C169.25 45.9375 171.641 42.9766 172.941 40.5547C174.246 38.1328 175.547 33.2578 173.703 29.7891Z" fill="#CB7322"/>
<path d="M172.629 43.7344C167.238 50.543 158.875 47.5782 154.363 45.9571C149.852 44.3321 149.523 36.7071 149.742 31.7657C149.961 26.8204 154.914 23.5118 154.914 23.5118C162.285 18.2266 173.73 21.7696 175.16 27.0391C176.59 32.3125 178.02 36.9258 172.629 43.7344ZM193.207 25.1719C189.008 17.3868 190.332 9.60942 179.883 7.39848C169.437 5.18364 158.746 -2.04683 144.066 8.1602C144.066 8.1602 138.297 12.1016 137.637 17.9258C136.977 23.7461 129.238 25.1563 131.816 38.2579C134.395 51.3594 136.062 58.0665 144.223 61.336C152.387 64.6055 155.086 64.6055 162.539 65.9219C169.988 67.2383 177.781 61.3555 185.109 59.1915C192.437 57.0274 190.344 47.5782 193.207 44.504C196.066 41.4297 197.406 32.961 193.207 25.1719Z" fill="#BCE9FA"/>
<path d="M172.746 43.754C167.352 50.5626 158.988 47.5977 154.477 45.9766C149.965 44.3516 149.637 36.7227 149.855 31.7813C150.078 26.8399 155.027 23.5313 155.027 23.5313C162.402 18.2461 173.844 21.7891 175.273 27.0586C176.707 32.3321 178.137 36.9454 172.746 43.754ZM177.184 26.4571C174.617 21.1876 170.289 17.086 160.973 18.2579C156.125 18.8672 154.223 20.1602 151.07 23.1641C151.07 23.1641 146.742 28.0391 147.84 34.3165C148.941 40.5899 149.16 47.5469 158.328 49.0118C167.5 50.4766 173.223 49.5235 176.082 43.8868C178.945 38.2461 179.75 31.7305 177.184 26.4571Z" fill="#69BDCE"/>
<path d="M176.039 44.0274C173.18 49.668 167.457 50.6172 158.289 49.1524C149.121 47.6875 148.898 40.7344 147.797 34.4571C146.699 28.1836 151.027 23.3047 151.027 23.3047C154.18 20.3047 156.082 19.0079 160.93 18.4024C170.246 17.2305 174.574 21.3282 177.141 26.6016C179.707 31.875 178.902 38.3907 176.039 44.0274ZM191.887 27.8086C188.695 20.8907 187.594 14.4102 185.176 13.0938C182.754 11.7735 175.16 8.25785 168.449 6.39067C161.734 4.52348 155.266 3.46098 147.621 9.24614C147.621 9.24614 141.527 12.3594 140.168 14.4063C138.051 17.5938 139.449 20.6836 135.656 24.8438C131.867 29.0039 133.238 32.8633 134.777 39.1211C136.316 45.3829 142.039 57.5743 149.191 59.6602C156.344 61.75 163.387 66.0313 167.129 64.4922C170.871 62.9571 181.434 59.6602 183.965 56.2579C186.492 52.8516 189.906 47.4688 190.676 44.1758C191.445 40.8789 195.078 34.7305 191.887 27.8086Z" fill="#A3E0F1"/>
<path d="M175.969 44.129C173.109 49.7696 167.387 50.7188 158.215 49.254C149.047 47.7891 148.824 40.836 147.727 34.5586C146.625 28.2852 150.953 23.4063 150.953 23.4063C154.109 20.4063 156.012 19.1094 160.856 18.5C170.172 17.3282 174.5 21.4297 177.07 26.7032C179.637 31.9727 178.828 38.4922 175.969 44.129ZM190.566 31.4336C188.914 27.6993 186.055 17.375 182.645 15.5079C179.231 13.6407 172.41 10.7852 167.899 8.80864C163.387 6.83208 158.984 6.94145 154.035 8.80864C149.082 10.6758 143.469 12.2149 139.84 19.793C139.84 19.793 138.078 22.5391 138.188 25.2852C138.297 28.0274 137.848 32.4219 138.184 37.254C138.52 42.0899 138.078 46.4805 144.02 50.2149C149.961 53.9493 152.274 58.2344 155.574 58.3438C158.875 58.4532 168.477 62.7188 177.031 58.3438C185.586 53.9688 183.856 48.3477 186.715 44.0665C189.574 39.7813 192.215 35.168 190.566 31.4336Z" fill="#87D4E3"/>
<path d="M155.914 50.1406C155.914 50.1406 159.676 51.6562 161.559 52.0898C163.441 52.5234 169.375 53.3203 171.258 48.6953C171.258 48.6953 169.52 50.793 167.059 51.0781C164.598 51.3672 162.57 50.9883 161.051 50.5625C159.531 50.1406 157.723 49.2734 155.914 50.1406Z" fill="#E6F7FD"/>
<path d="M158.277 49.2695C150.629 48.0508 149.293 42.9531 148.406 37.668C148.121 38.1797 147.922 38.8516 147.965 39.707C147.965 39.707 147.746 46.2578 150.57 47.5352C153.391 48.8125 154.695 50.4375 157.625 50.543C160.555 50.6523 168.355 53.3281 171.297 48.6836C168.168 50.1445 163.875 50.1641 158.277 49.2695Z" fill="#CAEEF9"/>
<path d="M153.273 8.23444C153.273 8.23444 155.488 9.62507 157.258 8.23444C159.031 6.84772 161.844 5.5196 164.977 6.07429C168.105 6.62507 170.871 10.9337 172.309 11.0469C173.75 11.1563 173.086 9.84382 170.984 8.23444C168.879 6.62507 167.379 4.30476 164.977 4.41413C162.57 4.52741 155.598 4.98444 153.273 8.23444Z" fill="#CAEEF9"/>
<path d="M183.047 11.6992C183.047 11.6992 182.492 12.9219 183.934 14.9102C185.371 16.8985 184.375 19.3321 186.367 21.7617C188.359 24.1914 191.68 26.0703 192.125 30.0469C192.566 34.0235 190.129 39.5469 191.457 40.211C192.789 40.875 194.445 38.2227 194.336 34.4649C194.227 30.711 193.449 28.8321 191.238 25.2969C189.023 21.7617 189.133 17.3438 187.695 15.9063C186.258 14.4688 184.043 9.81253 183.047 11.6992Z" fill="#CAEEF9"/>
<path d="M140.656 19.4414C140.656 19.4414 139.328 21.6524 138.773 23.5274C138.219 25.4063 139.66 32.3672 138.773 36.7852C137.887 41.2071 139.77 45.625 137.887 46.2891C136.008 46.9493 135.344 42.9571 135.453 40.3125C135.566 37.6719 132.109 31.6875 135.441 25.7852C138.773 19.8828 139.215 15.0235 142.094 13.8086C144.973 12.5899 144.086 14.4688 143.645 16.0157C143.203 17.5625 141.762 17.3321 140.656 19.4414Z" fill="#CAEEF9"/>
<path d="M137.555 49.8242C137.555 49.8242 138.332 56.1211 142.648 57.8867C146.965 59.6562 152.387 60.3164 155.156 61.9766C157.922 63.6328 165.34 64.957 167.773 64.5156C170.207 64.0742 174.082 61.9766 170.652 60.6484C167.219 59.3242 158.809 61.6445 155.82 58.6601C152.832 55.6797 147.852 55.5664 145.637 53.8008C143.422 52.0312 138.773 47.6133 137.555 49.8242Z" fill="#CAEEF9"/>
<path d="M185.891 49.7852C184.785 51.5742 183.16 53.3633 181.883 55.0274C180.215 56.3047 178.426 57.9258 176.633 59.0274C174.75 60.3281 172.578 61.4844 173.16 58.5938C173.883 55.2696 175.039 49.9258 169.105 51.8047C164.91 53.2461 161.145 57.1485 157.383 59.6055C156.367 60.1836 155.5 61.0508 154.195 61.0508C153.039 58.3047 157.672 56.2813 158.395 53.9688C159.117 51.2266 157.672 49.3477 154.777 49.7813C150.723 50.5039 146.527 56.7149 142.328 55.4141C144.066 52.668 147.539 51.8047 149.277 49.2031C150.723 47.0352 150.867 44.2891 150.578 41.836C149.566 32.4414 138.277 44.2891 133.645 43.4258C133.645 41.1133 137.84 38.2227 139.289 36.4883C141.316 34.3203 143.922 32.7344 145.512 30.2774C147.539 27.3867 148.117 24.6406 144.066 23.918C140.738 23.3399 137.262 27.8203 134.801 26.9531C135.816 25.0742 138.277 23.918 139.723 22.1875C140.98 20.5117 142.504 18.4336 143.258 16.4727C145.223 15.7188 147.305 14.1992 148.98 12.9453C150.719 11.5 151.875 9.04299 153.758 8.03127C154.625 10.4883 150.141 13.9531 150.719 17.2774C151.441 21.3242 154.191 20.7461 157.086 18.7227C159.547 17.1328 161.141 14.5352 163.312 12.5117C165.047 11.0664 167.941 6.87502 170.258 6.87502C171.125 11.5 159.258 22.7696 168.668 23.7813C171.125 24.0703 173.875 23.9219 176.047 22.4805C178.652 20.7461 179.523 17.2774 182.273 15.543C183.574 19.7344 177.352 23.9219 176.629 27.9688C176.191 30.8594 178.074 32.3047 180.824 31.5821C183.141 30.8594 185.168 26.2344 187.918 27.3906C187.918 28.6914 187.047 29.5586 186.469 30.5703C184.008 34.3281 180.102 38.0821 178.652 42.2735C176.773 48.1953 182.129 47.0391 185.457 46.3164C188.352 45.7383 187.195 47.9063 185.891 49.7852ZM185.75 56.8594C185.75 56.8594 185.277 57.836 183.719 58.8867C182.332 59.0508 181.789 58.6133 181.777 57.8242C182.125 55.8828 184.437 54.9492 184.496 54.9258C185.406 54.8477 185.93 55.3672 185.75 56.8594ZM140.391 15.6406C139.852 15.2227 140.066 14.5352 140.535 13.9571C141.008 13.3789 142.23 13.3828 142.25 13.3828C142.695 13.7774 142.656 14.6055 142.293 15.5078C141.535 15.8125 140.832 15.8867 140.391 15.6406ZM189.652 42.418C187.773 43.8594 185.312 47.1836 182.562 45.7383C180.535 44.5821 180.969 41.9844 181.695 40.25C183.574 35.9141 187.484 32.0156 190.234 28.1133C191.102 26.9571 193.129 22.625 189.945 23.0586C189.074 23.0586 188.352 24.3555 187.773 24.9336C186.18 26.3789 184.152 28.1133 182.129 28.9805C180.535 29.8477 177.785 29.9922 177.641 27.5352C177.496 25.0781 181.258 21.3242 182.562 19.4453C183.574 17.8555 186.902 11.7891 182.996 12.6563C180.68 13.0899 178.508 16.2656 177.062 17.8555C175.613 19.7344 168.812 24.5039 167.074 20.8906C166.352 19.4453 168.234 16.8438 168.957 15.6875C169.969 14.0977 175.324 7.74221 172.574 5.8633C171.418 4.99612 168.812 6.87502 167.797 7.45315C164.758 9.33205 162.008 11.5 159.691 14.2461C158.535 15.543 156.074 19.3008 153.902 18C150.863 15.8321 156.652 10.6328 156.941 8.46487C157.812 2.54299 151.008 8.32033 149.414 9.76565C147.527 11.2461 145.758 13.2227 143.77 14.6563C143.977 13.6406 144.07 12.5117 143.633 12.0703C142.664 11.2266 140.891 12.1992 139.996 13.0469C139.965 13.0742 139.934 13.1055 139.898 13.1367C139.879 13.1563 139.859 13.1758 139.844 13.1953C138.988 14.086 137.996 15.8711 138.852 16.8438C139.289 17.2852 140.422 17.1875 141.441 16.9805C140.004 18.9688 138.023 20.7305 136.539 22.6172C135.09 24.2071 129.301 31 135.238 30.1328C137.406 29.8438 142.617 24.0625 144.789 27.0977C146.094 29.2656 142.328 31.7227 141.027 32.875C138.277 35.1875 136.105 37.9336 134.223 40.9688C133.645 41.9805 131.762 44.5781 132.633 45.7344C134.512 48.4805 140.883 43.1328 142.473 42.125C143.633 41.4024 146.238 39.5235 147.684 40.2461C151.305 41.9805 146.527 48.7696 144.645 50.2149C143.051 51.6602 139.867 53.8242 139.434 56.1367C138.566 60.0391 144.645 56.7149 146.238 55.7031C148.117 54.4024 151.883 50.6485 154.344 50.793C156.801 50.9375 156.656 53.6797 155.789 55.2696C154.922 57.293 153.184 59.3164 151.738 60.9063C151.156 61.4844 149.855 62.2071 149.855 63.0703C149.422 66.25 153.762 64.2266 154.922 63.3633C158.828 60.6172 162.738 56.7149 167.078 54.836C168.816 54.1133 171.422 53.6797 172.578 55.7031C174.027 58.4492 170.699 60.9063 169.25 62.7852C168.238 63.9414 166.211 66.25 168.961 66.1055C170.844 65.961 173.16 63.0703 174.316 61.9141C174.926 61.3789 177.609 58.9258 180.227 57.0742C179.437 58.1602 178.781 59.4219 179.379 60.1875C179.676 60.586 180.18 60.6367 180.746 60.5117H180.738C180.738 60.5117 183.742 60.2539 185.641 58.3594C187.543 56.461 187.812 53.1094 187.25 52.7266V52.7305C187.195 52.6524 187.133 52.586 187.055 52.5274C186.289 51.9297 185.02 52.586 183.93 53.375C185.785 50.7617 188.246 48.0781 188.785 47.4727C189.945 46.3164 192.84 44.0078 192.984 42.1289C193.129 39.3828 190.812 41.4063 189.652 42.418Z" fill="#69BDCE"/>
<path d="M187.242 48.9922C186.141 50.7852 184.512 52.5742 183.234 54.2383C181.566 55.5156 179.777 57.1367 177.984 58.2383C176.102 59.5352 173.934 60.6914 174.512 57.8008C175.234 54.4805 176.391 49.1367 170.457 51.0117C166.262 52.4571 162.496 56.3594 158.734 58.8125C157.719 59.3906 156.852 60.2578 155.551 60.2578C154.391 57.5156 159.023 55.4922 159.746 53.1797C160.473 50.4336 159.023 48.5547 156.129 48.9883C152.074 49.711 147.879 55.9258 143.68 54.625C145.418 51.8789 148.891 51.0117 150.629 48.4141C152.074 46.2461 152.219 43.5 151.93 41.043C150.918 31.6524 139.629 43.5 134.996 42.6328C134.996 40.3203 139.195 37.4336 140.641 35.6992C142.668 33.5313 145.273 31.9414 146.863 29.4844C148.891 26.5977 149.469 23.8516 145.418 23.1289C142.09 22.5508 138.613 27.0313 136.152 26.1641C137.168 24.2852 139.629 23.1289 141.074 21.3946C142.332 19.7227 143.855 17.6446 144.609 15.6797C146.574 14.9258 148.656 13.4102 150.332 12.1524C152.07 10.7071 153.23 8.25393 155.109 7.24221C155.98 9.69533 151.492 13.1641 152.07 16.4883C152.793 20.5313 155.543 19.9531 158.441 17.9297C160.898 16.3438 162.492 13.7422 164.664 11.7188C166.398 10.2735 169.293 6.08596 171.609 6.08596C172.48 10.7071 160.609 21.9766 170.02 22.9883C172.48 23.2774 175.23 23.1328 177.398 21.6875C180.004 19.9531 180.875 16.4883 183.625 14.7539C184.926 18.9414 178.703 23.1328 177.98 27.1797C177.547 30.0664 179.426 31.5117 182.176 30.7891C184.492 30.0664 186.52 25.4453 189.27 26.6016C189.27 27.9024 188.402 28.7656 187.82 29.7774C185.363 33.5352 181.453 37.293 180.004 41.4805C178.125 47.4063 183.48 46.25 186.809 45.5274C189.703 44.9492 188.547 47.1172 187.242 48.9922ZM187.102 56.0703C187.102 56.0703 186.629 57.0469 185.07 58.0977C183.687 58.2617 183.141 57.8203 183.129 57.0352C183.477 55.0938 185.789 54.1602 185.848 54.1367C186.758 54.0586 187.281 54.5781 187.102 56.0703ZM141.742 14.8516C141.203 14.4336 141.418 13.7461 141.887 13.168C142.359 12.5899 143.582 12.5938 143.602 12.5938C144.047 12.9844 144.008 13.8125 143.645 14.7149C142.887 15.0196 142.184 15.0938 141.742 14.8516ZM191.004 41.625C189.125 43.0703 186.664 46.3946 183.914 44.9492C181.887 43.793 182.32 41.1914 183.047 39.4571C184.926 35.125 188.836 31.2227 191.586 27.3242C192.453 26.168 194.48 21.8321 191.297 22.2656C190.426 22.2656 189.703 23.5664 189.125 24.1446C187.531 25.5899 185.508 27.3242 183.48 28.1914C181.887 29.0586 179.137 29.2031 178.992 26.7461C178.848 24.2891 182.609 20.5313 183.914 18.6524C184.926 17.0664 188.258 10.9961 184.348 11.8633C182.031 12.2969 179.859 15.4766 178.414 17.0664C176.965 18.9414 170.164 23.711 168.426 20.0977C167.703 18.6524 169.586 16.0547 170.309 14.8985C171.32 13.3086 176.676 6.95315 173.926 5.07424C172.77 4.20705 170.164 6.08596 169.148 6.66408C166.109 8.54299 163.359 10.7071 161.043 13.4531C159.887 14.7539 157.426 18.5117 155.254 17.211C152.215 15.043 158.004 9.83987 158.293 7.6758C159.164 1.75002 152.359 7.53127 150.77 8.97658C148.879 10.4571 147.109 12.4336 145.121 13.8672C145.328 12.8516 145.422 11.7188 144.984 11.2813C144.016 10.4375 142.242 11.4063 141.348 12.2539C141.316 12.2852 141.285 12.3125 141.25 12.3477C141.23 12.3672 141.215 12.3867 141.195 12.4063C140.34 13.293 139.348 15.0821 140.203 16.0547C140.641 16.4922 141.777 16.3985 142.793 16.1914C141.355 18.1797 139.375 19.9414 137.891 21.8281C136.441 23.418 130.652 30.2071 136.59 29.3399C138.758 29.0508 143.969 23.2735 146.141 26.3086C147.445 28.4727 143.68 30.9297 142.379 32.086C139.629 34.3985 137.457 37.1446 135.574 40.1758C134.996 41.1875 133.113 43.7891 133.984 44.9453C135.863 47.6875 142.234 42.3438 143.824 41.3321C144.984 40.6094 147.59 38.7305 149.035 39.4531C152.652 41.1875 147.879 47.9805 145.996 49.4219C144.402 50.8672 141.219 53.0352 140.785 55.3477C139.918 59.2461 145.996 55.9258 147.59 54.9141C149.469 53.6133 153.234 49.8555 155.695 50C158.156 50.1446 158.012 52.8906 157.141 54.4805C156.273 56.5039 154.535 58.5235 153.09 60.1133C152.512 60.6914 151.207 61.4141 151.207 62.2813C150.773 65.461 155.113 63.4375 156.273 62.5703C160.18 59.8242 164.09 55.9258 168.43 54.0469C170.168 53.3242 172.773 52.8906 173.934 54.9141C175.379 57.6602 172.051 60.1133 170.602 61.9922C169.59 63.1485 167.562 65.461 170.312 65.3164C172.195 65.1719 174.512 62.2813 175.668 61.125C176.277 60.586 178.961 58.1328 181.578 56.2813C180.789 57.3711 180.133 58.6328 180.73 59.3946C181.027 59.793 181.531 59.8438 182.098 59.7188L182.09 59.7227C182.09 59.7227 185.094 59.4649 186.992 57.5664C188.895 55.6719 189.164 52.3203 188.602 51.9375C188.547 51.8633 188.484 51.793 188.406 51.7344C187.641 51.1406 186.375 51.7969 185.281 52.5821C187.137 49.9688 189.598 47.2891 190.137 46.6836C191.297 45.5274 194.191 43.2149 194.336 41.336C194.48 38.5938 192.164 40.6133 191.004 41.625Z" fill="#FAEF9F"/>
<path d="M150.648 48.3945C152.098 46.2305 152.242 43.4844 151.949 41.0273C150.937 31.6367 139.648 43.4844 135.016 42.6172C135.016 40.3047 139.215 37.4141 140.66 35.6836C140.973 35.3477 141.305 35.0273 141.641 34.7148C140.93 35.3359 140.223 35.9648 139.574 36.6562C138.512 37.9336 135.965 39.832 134.688 41.668C134.414 42.1484 134.148 42.668 133.977 43.168C133.945 43.3125 133.93 43.4531 133.93 43.5938C138.562 44.4609 149.852 32.6133 150.867 42.0039C151.156 44.4609 151.012 47.2031 149.562 49.3711C149.352 49.6875 149.117 49.9766 148.859 50.2461C149.539 49.7109 150.164 49.1211 150.648 48.3945Z" fill="#FEF9D1"/>
<path d="M135.09 27.121C137.547 27.9882 141.023 23.5117 144.352 24.0898C148.406 24.8124 147.824 27.5546 145.801 30.4452C145.188 31.3867 144.43 32.1992 143.609 32.9687C144.832 31.9023 146.012 30.8163 146.887 29.4687C148.91 26.582 149.492 23.8359 145.438 23.1132C142.109 22.5351 138.633 27.0156 136.176 26.1484C136.418 25.6913 136.75 25.2812 137.133 24.8906C136.305 25.5663 135.547 26.2695 135.09 27.121Z" fill="#FEF9D1"/>
<path d="M140.008 22.3555C139.875 22.5156 139.73 22.6719 139.578 22.8242C140.133 22.3711 140.66 21.9023 141.094 21.3789C142.223 19.8789 143.555 18.0586 144.363 16.2852C144.09 16.4141 143.816 16.5352 143.543 16.6406C142.789 18.6016 141.27 20.6797 140.008 22.3555Z" fill="#FEF9D1"/>
<path d="M190.23 23.2265C193.414 22.7929 191.387 27.125 190.519 28.2812C187.769 32.1836 183.863 36.0859 181.98 40.4179C181.258 42.1523 180.82 44.7539 182.848 45.9101C182.992 45.9843 183.133 46.0429 183.273 46.0937C184.254 46.0351 185.301 45.8359 186.242 45.6367C187.148 45.1015 188 44.3086 188.777 43.5937C187.332 44.832 185.691 45.8554 183.934 44.9336C181.906 43.7773 182.344 41.1757 183.066 39.4414C184.945 35.1093 188.855 31.207 191.605 27.3086C192.473 26.1523 194.5 21.8164 191.316 22.25C190.758 22.25 190.262 22.7851 189.824 23.3203C189.957 23.2617 190.09 23.2265 190.23 23.2265Z" fill="#FEF9D1"/>
<path d="M168.086 7.62112C169.098 7.04299 171.703 5.16799 172.859 6.03127C175.613 7.91018 170.254 14.2696 169.242 15.8555C168.52 17.0117 166.637 19.6133 167.359 21.0586C168.969 24.4063 174.926 20.5586 176.945 18.4844C174.395 20.5391 169.824 22.9492 168.445 20.0821C167.723 18.6406 169.605 16.0391 170.328 14.8828C171.34 13.293 176.695 6.93752 173.945 5.05862C172.789 4.19143 170.184 6.07033 169.172 6.64846C167.059 7.94924 165.094 9.39846 163.312 11.0781C164.797 9.80471 166.395 8.66799 168.086 7.62112Z" fill="#FEF9D1"/>
<path d="M149.703 9.93365C151.293 8.48834 158.098 2.71099 157.23 8.63287C156.937 10.8008 151.148 16.004 154.188 18.168C155.461 18.9297 156.828 17.961 157.977 16.7657C157.102 17.4102 156.164 17.7266 155.273 17.1954C152.234 15.0274 158.023 9.82427 158.312 7.66021C159.184 1.73443 152.379 7.51177 150.789 8.95709C150.105 9.49224 149.441 10.0938 148.773 10.7071C149.082 10.4415 149.391 10.1797 149.703 9.93365Z" fill="#FEF9D1"/>
<path d="M143.918 12.2422C144.355 12.6797 144.262 13.8126 144.055 14.8282C144.949 14.1797 145.801 13.4258 146.637 12.6563C146.148 13.0782 145.652 13.4844 145.141 13.8516C145.348 12.836 145.441 11.7032 145.004 11.2657C144.035 10.4219 142.262 11.3907 141.367 12.2383C141.336 12.2696 141.305 12.2969 141.273 12.3321C141.25 12.3516 141.234 12.3711 141.215 12.3907C141.133 12.4766 141.051 12.5704 140.969 12.668C141.906 12.0313 143.16 11.5782 143.918 12.2422Z" fill="#FEF9D1"/>
<path d="M191.027 41.6093C190.578 41.9531 190.102 42.4023 189.594 42.8671C189.711 42.7656 189.828 42.6718 189.941 42.5859C191.098 41.5742 193.414 39.5507 193.27 42.2968C193.125 44.1757 190.23 46.4882 189.07 47.6406C188.531 48.25 186.074 50.9296 184.219 53.5429C185.309 52.7539 186.574 52.0976 187.34 52.6953C187.422 52.7539 187.484 52.8242 187.535 52.8984L187.539 52.8945C188.07 53.2617 187.852 56.2968 186.203 58.2265C186.484 58.0273 186.762 57.8047 187.016 57.5507C188.914 55.6562 189.184 52.3046 188.621 51.9218C188.57 51.8476 188.504 51.7773 188.426 51.7187C187.66 51.125 186.395 51.7812 185.305 52.5703C187.156 49.9531 189.617 47.2734 190.156 46.6679C191.316 45.5117 194.211 43.1992 194.355 41.3203C194.5 38.5781 192.184 40.5976 191.027 41.6093Z" fill="#FEF9D1"/>
<path d="M176.918 59.1953C178.711 58.0937 180.504 56.4726 182.172 55.1992C182.25 55.0937 182.336 54.9882 182.418 54.8828C180.996 56.0234 179.5 57.3007 178.004 58.2226C176.125 59.5195 173.953 60.6757 174.531 57.789C175.254 54.4648 176.41 49.1172 170.477 50.9961C166.281 52.4414 162.516 56.3437 158.754 58.7968C157.738 59.375 156.871 60.2422 155.57 60.2422C154.41 57.5 159.043 55.4765 159.766 53.164C160.492 50.4179 159.043 48.539 156.148 48.9726C152.098 49.6953 147.898 55.9101 143.699 54.6093C143.957 54.2031 144.254 53.8437 144.574 53.5078C143.828 54.0937 143.141 54.7539 142.613 55.5859C146.813 56.8828 151.012 50.6718 155.062 49.9492C157.957 49.5156 159.406 51.3945 158.684 54.1406C157.957 56.4492 153.324 58.4726 154.484 61.2187C155.785 61.2187 156.656 60.3515 157.668 59.7734C161.43 57.3164 165.195 53.4179 169.395 51.9726C173.328 50.7265 174.145 52.6601 174.035 55.0742C174.605 56.3203 174.211 57.5078 173.48 58.6054C173.469 58.6562 173.457 58.7109 173.445 58.7617C172.867 61.6523 175.039 60.4961 176.918 59.1953Z" fill="#FEF9D1"/>
<path d="M183.281 12.8242C187.191 11.957 183.863 18.0234 182.848 19.6133C182.059 20.7539 180.367 22.582 179.188 24.3945C178.609 25.3242 178.164 26.2461 178 27.164C177.965 27.3984 177.949 27.6172 177.945 27.832C178.18 30.1484 180.852 30 182.414 29.1484C184.441 28.2812 186.465 26.5469 188.059 25.1054C188.086 25.0781 188.113 25.0508 188.137 25.0195C186.738 26.2304 185.121 27.4804 183.5 28.1758C181.906 29.039 179.156 29.1836 179.012 26.7304C178.867 24.2734 182.633 20.5156 183.934 18.6406C184.945 17.0508 188.277 10.9804 184.367 11.8476C183.273 12.0547 182.211 12.875 181.238 13.8515C181.898 13.3398 182.582 12.9531 183.281 12.8242Z" fill="#FEF9D1"/>
<path d="M140.824 14.1289C140.352 14.7031 140.137 15.3906 140.676 15.8125C141.117 16.0547 141.82 15.9805 142.578 15.6758C142.68 15.4258 142.754 15.1797 142.801 14.9453C142.391 15.0117 142.027 14.9844 141.762 14.8359C141.383 14.543 141.383 14.1172 141.574 13.6914C141.285 13.7734 141 13.9102 140.824 14.1289Z" fill="#FEF9D1"/>
<path d="M185.094 58.082C183.707 58.2461 183.16 57.8047 183.152 57.0195C183.246 56.4766 183.5 56.0117 183.812 55.625C183.113 56.0938 182.266 56.875 182.066 57.9922C182.074 58.7812 182.621 59.2187 184.008 59.0547C184.672 58.6055 185.137 58.1719 185.453 57.8203C185.34 57.9063 185.219 57.9922 185.094 58.082Z" fill="#FEF9D1"/>
<path d="M44.8985 20.2773C49.3946 20.2773 53.7032 16.2695 53.4922 11.5898C53.2813 6.88669 49.711 2.90232 44.8985 2.90232H11.4727C11.2344 2.90232 10.9962 2.92966 10.7579 2.92966C10.5196 2.957 10.2813 2.957 10.043 2.92966C9.69928 2.90232 9.35553 2.87497 9.01178 2.90232C4.41022 3.11716 0.36334 6.72653 0.418028 11.5898C0.656309 29.5273 0.867247 47.4648 1.10553 65.4023C1.15631 69.9453 5.01959 74.3008 9.69928 74.0898C14.3008 73.875 18.3477 70.2656 18.293 65.4023C18.2149 60.1093 18.1602 54.8398 18.0821 49.5468C18.0547 47.3554 19.8008 45.5664 21.9688 45.5664H34.7696C39.2657 45.5664 43.5743 41.582 43.3633 36.8789C43.1524 32.1718 39.5821 28.1914 34.7696 28.1914H21.6524C19.5352 28.1914 17.793 26.4531 17.7657 24.3125C17.7657 24.289 17.7657 24.2617 17.7657 24.2343C17.7383 22.0429 19.4844 20.25 21.6524 20.25L44.8985 20.2773Z" fill="#95D9E8"/>
<path d="M53.8867 11.5625C53.6484 6.48438 49.7109 2.5 44.8984 2.5H11.4727C11.2344 2.5 10.9961 2.5 10.7031 2.52734C10.4922 2.55469 10.2812 2.55469 10.0703 2.52734C9.72656 2.5 9.35547 2.5 8.98437 2.5C3.90625 2.74219 -0.0312524 6.72656 0.0195286 11.5898L0.683591 65.4023C0.707028 67.8594 1.82031 70.3477 3.67187 72.1094C5.28125 73.6602 7.29297 74.4883 9.35547 74.4883C9.46093 74.4883 9.59375 74.4883 9.69922 74.4883C14.8047 74.25 18.7422 70.2656 18.6641 65.4023L18.4805 49.5469C18.4805 48.5859 18.8242 47.7031 19.4844 47.0352C20.1445 46.3672 21.0195 45.9922 21.9687 45.9922H34.7695C37.1758 45.9922 39.582 44.9258 41.3555 43.0547C42.9922 41.3164 43.8672 39.125 43.7617 36.9062C43.5234 31.8242 39.582 27.8438 34.7695 27.8438H21.6523C19.75 27.8438 18.1875 26.293 18.1602 24.3672V24.2891C18.1602 23.3242 18.5039 22.4414 19.168 21.7734C19.8281 21.1055 20.6992 20.7305 21.6523 20.7305H44.8984C47.3047 20.7305 49.7109 19.6641 51.4805 17.793C53.1211 16 53.9687 13.8086 53.8867 11.5625ZM50.8984 17.1758C49.3398 18.8086 47.1992 19.8242 45.082 19.875H21.6523C20.4883 19.875 19.4297 20.332 18.6094 21.1602C17.793 21.9883 17.3672 23.0859 17.3672 24.2617V24.3398C17.3945 26.6914 19.3242 28.6172 21.6523 28.6172H34.7695C39.1602 28.6172 42.7539 32.2539 42.9648 36.9297C43.0469 38.9375 42.2773 40.9141 40.7734 42.4922C39.1836 44.1758 36.9375 45.1914 34.7695 45.1914H21.9687C20.8047 45.1914 19.75 45.6445 18.9297 46.4766C18.1094 47.3047 17.6875 48.3984 17.6875 49.5742L17.8984 65.4258C17.9492 69.8633 14.3555 73.5 9.67187 73.7148C7.71484 73.793 5.78515 73.0469 4.22656 71.5742C2.53125 69.9727 1.5 67.6719 1.47656 65.4258L0.812497 11.5898C0.761716 7.15234 4.35937 3.51562 9.03906 3.30469C9.14453 3.30469 9.25 3.30469 9.32812 3.30469C9.5664 3.30469 9.77734 3.30469 10.0156 3.32812C10.2812 3.35547 10.5469 3.35547 10.8086 3.32812C11.0469 3.32812 11.2578 3.30469 11.4727 3.30469H44.8711C49.2617 3.30469 52.8555 6.9375 53.0703 11.6172C53.1758 13.6211 52.4062 15.6016 50.8984 17.1758Z" fill="white"/>
<path d="M50.9805 11.1641C51.0859 13.7539 47.0937 13.7305 47.0117 11.1641C46.9609 9.53126 45.6914 8.43751 44.1055 8.46095C41.5391 8.48829 41.5391 4.48048 44.1055 4.45314C47.9102 4.39845 50.8477 7.3672 50.9805 11.1641ZM47.0938 14.0742C44.5273 14.0742 44.5273 18.0859 47.0938 18.0859C49.6562 18.0859 49.6562 14.0742 47.0938 14.0742ZM36.0117 30.168C33.6328 29.2344 32.6016 33.1094 34.9531 34.043C37.043 34.8477 37.4414 37.5195 36.0117 39.0977C34.293 40.9961 37.0703 43.8281 38.8164 41.9297C42.4102 37.9727 40.8789 32.0664 36.0117 30.168ZM12.3711 58.8242C12.5039 60.75 12.7422 62.8359 12.0547 64.6797C11.6562 65.7734 10.7031 67.0859 9.43359 67.2188C8.37891 67.3242 7.45312 68.0469 7.45312 69.2227C7.45312 70.2109 8.37891 71.3359 9.43359 71.2266C11.9453 70.9609 14.0117 69.543 15.2266 67.2734C16.6289 64.6797 16.5234 61.6563 16.3359 58.7969C16.1797 56.2578 12.2109 56.2578 12.3711 58.8242ZM14.0352 55.7774C16.6016 55.7774 16.6016 51.7656 14.0352 51.7656C11.4727 51.7656 11.4727 55.7774 14.0352 55.7774Z" fill="#F2EDED"/>
<path d="M260.32 37.9258C260.027 17.6407 242.363 1.06643 220.66 0.718777C217.973 0.675808 215.34 0.878933 212.793 1.30471C207.492 2.19534 203.641 6.51956 203.641 11.5547V64.0469C203.641 70.0391 208.395 75.1094 214.754 75.875C216.457 76.0821 218.191 76.1875 219.957 76.1875C242.438 76.1875 260.629 59.0078 260.32 37.9258ZM227.348 50.9883C222.949 50.9883 219.379 44.9141 219.379 37.4141C219.379 29.9219 222.949 23.8438 227.348 23.8438C231.75 23.8438 235.32 29.918 235.32 37.4141C235.32 44.9141 231.754 50.9883 227.348 50.9883Z" fill="#F27F9D"/>
<path d="M219.961 76.6211C219.957 76.6211 219.957 76.6211 219.957 76.6211C218.188 76.6211 216.418 76.5156 214.695 76.3086C208.129 75.5156 203.18 70.2461 203.18 64.0469V11.5547C203.18 6.2969 207.187 1.80471 212.715 0.875022C215.32 0.441428 217.996 0.238303 220.668 0.281272C231.281 0.453147 241.289 4.44533 248.844 11.5352C256.395 18.625 260.637 27.9961 260.781 37.9219C260.93 48.1211 256.824 57.7578 249.23 65.0586C241.477 72.5156 231.082 76.6211 219.961 76.6211ZM219.953 1.14846C217.574 1.14846 215.195 1.34768 212.875 1.7383C207.789 2.58987 204.098 6.72268 204.098 11.5547V64.0469C204.098 69.8086 208.703 74.7071 214.809 75.4414C216.496 75.6446 218.23 75.75 219.957 75.75C219.957 75.75 219.957 75.75 219.961 75.75C230.836 75.75 240.996 71.7383 248.578 64.4453C256 57.3125 260.008 47.8946 259.859 37.9336C259.574 17.9961 241.98 1.49612 220.652 1.15627C220.418 1.15237 220.188 1.14846 219.953 1.14846ZM227.348 51.4219C222.699 51.4219 218.918 45.1406 218.918 37.4141C218.918 29.6914 222.699 23.4102 227.348 23.4102C232 23.4102 235.781 29.6914 235.781 37.4141C235.781 45.1406 232 51.4219 227.348 51.4219ZM227.348 24.2813C223.207 24.2813 219.84 30.1719 219.84 37.4141C219.84 44.6602 223.207 50.5508 227.348 50.5508C231.492 50.5508 234.859 44.6602 234.859 37.4141C234.863 30.1719 231.492 24.2813 227.348 24.2813Z" fill="white"/>
<path d="M250.387 29.7461C248.496 23.2735 244.227 17.5977 238.32 13.8751C235.863 12.3282 238.168 8.55084 240.641 10.1094C247.547 14.461 252.605 21.0001 254.824 28.586C255.613 31.3008 251.176 32.4493 250.387 29.7461ZM256.477 34.9688C256.461 34.6797 256.371 34.4102 256.199 34.1602C256.055 33.9063 255.859 33.6993 255.609 33.5469C255.387 33.3555 255.125 33.2266 254.828 33.1602C254.621 33.1329 254.418 33.1055 254.215 33.0821C253.801 33.0821 253.414 33.1836 253.055 33.3751C252.898 33.4922 252.746 33.6055 252.586 33.7188C252.301 33.9922 252.105 34.3086 251.996 34.6797C251.945 34.8086 251.898 34.9336 251.848 35.0626C251.754 35.3555 251.738 35.6407 251.809 35.9336C251.824 36.2227 251.914 36.4922 252.082 36.7422C252.227 36.9961 252.422 37.2032 252.676 37.3555C252.894 37.5469 253.16 37.6758 253.457 37.7461L254.07 37.8243C254.484 37.8243 254.871 37.7227 255.23 37.5274C255.383 37.4141 255.539 37.3008 255.695 37.1876C255.98 36.9141 256.176 36.5938 256.289 36.2227C256.336 36.0938 256.383 35.9688 256.434 35.8399C256.531 35.5508 256.543 35.2618 256.477 34.9688ZM224.699 53.7969C221.394 52.8282 218.883 50.3399 217.945 47.1876C217.144 44.4883 212.707 45.6329 213.512 48.3477C214.891 52.9766 218.641 56.586 223.48 58.0079C226.312 58.836 227.523 54.629 224.699 53.7969ZM229.937 53.2344C226.98 53.2344 226.977 57.5977 229.937 57.5977C232.898 57.5977 232.902 53.2344 229.937 53.2344Z" fill="#F2EDED"/>
</svg>
