<svg xmlns="http://www.w3.org/2000/svg" xmlns:xlink="http://www.w3.org/1999/xlink" width="500" zoomAndPan="magnify" viewBox="0 0 375 374.999991" height="500" preserveAspectRatio="xMidYMid meet" version="1.0"><defs><clipPath id="84fed06bd4"><path d="M 122.039062 168.496094 L 188 168.496094 L 188 234.496094 L 122.039062 234.496094 Z M 122.039062 168.496094 " clip-rule="nonzero"/></clipPath><clipPath id="738b4d1ae1"><path d="M 187 190 L 189.539062 190 L 189.539062 193 L 187 193 Z M 187 190 " clip-rule="nonzero"/></clipPath><clipPath id="f77a91ae6f"><path d="M 194 167 L 261 167 L 261 234.457031 L 194 234.457031 Z M 194 167 " clip-rule="nonzero"/></clipPath><clipPath id="e904f4a91d"><path d="M 199 167 L 261 167 L 261 234.457031 L 199 234.457031 Z M 199 167 " clip-rule="nonzero"/></clipPath><clipPath id="f6eae1b127"><path d="M 209 182 L 261 182 L 261 234.457031 L 209 234.457031 Z M 209 182 " clip-rule="nonzero"/></clipPath><clipPath id="067fd0c885"><path d="M 64 168.496094 L 117.96875 168.496094 L 117.96875 240.496094 L 64 240.496094 Z M 64 168.496094 " clip-rule="nonzero"/></clipPath><clipPath id="6554d89734"><path d="M 267.179688 166.191406 L 324.929688 166.191406 L 324.929688 242.691406 L 267.179688 242.691406 Z M 267.179688 166.191406 " clip-rule="nonzero"/></clipPath></defs><g clip-path="url(#84fed06bd4)"><path fill="#ef9230" d="M 186.195312 206.871094 C 186.1875 206.855469 186.179688 206.839844 186.175781 206.820312 C 186.03125 206.707031 185.886719 206.597656 185.746094 206.488281 C 184.511719 206.316406 183.335938 205.910156 182.234375 205.265625 C 181.585938 204.761719 180.9375 204.261719 180.289062 203.761719 C 179.101562 202.558594 178.277344 201.140625 177.820312 199.511719 C 177.703125 198.65625 177.589844 197.804688 177.476562 196.949219 C 177.425781 195.621094 177.699219 194.386719 178.304688 193.238281 C 178.664062 192.136719 179.253906 191.175781 180.078125 190.347656 C 180.066406 190.246094 180.050781 190.148438 180.039062 190.050781 C 179.546875 189.667969 179.050781 189.285156 178.554688 188.898438 C 177.367188 187.699219 176.542969 186.28125 176.085938 184.652344 C 176.085938 184.652344 176.085938 184.648438 176.085938 184.648438 C 175.96875 184.34375 175.859375 184.027344 175.769531 183.703125 C 175.65625 182.847656 175.542969 181.996094 175.425781 181.140625 C 175.386719 180.132812 175.542969 179.183594 175.875 178.277344 C 175.953125 178.007812 176.050781 177.742188 176.164062 177.480469 C 176.136719 177.394531 176.113281 177.308594 176.085938 177.222656 C 176.070312 177.101562 176.054688 176.988281 176.039062 176.871094 C 175.824219 176.496094 175.640625 176.097656 175.476562 175.691406 C 169.851562 171.1875 162.71875 168.496094 154.960938 168.496094 C 136.78125 168.496094 122.050781 183.269531 122.050781 201.496094 C 122.050781 219.722656 136.78125 234.496094 154.960938 234.496094 C 170.6875 234.496094 183.835938 223.433594 187.09375 208.644531 C 187.066406 208.445312 187.042969 208.25 187.015625 208.054688 C 186.71875 207.683594 186.441406 207.289062 186.195312 206.871094 Z M 154.960938 210.03125 C 150.257812 210.03125 146.445312 206.210938 146.445312 201.496094 C 146.445312 196.78125 150.257812 192.957031 154.960938 192.957031 C 159.660156 192.957031 163.472656 196.78125 163.472656 201.496094 C 163.472656 206.210938 159.660156 210.03125 154.960938 210.03125 Z M 154.960938 210.03125 " fill-opacity="1" fill-rule="nonzero"/></g><path fill="#d36c27" d="M 131.417969 182.753906 C 131.417969 182.753906 127.28125 184.296875 124.679688 196.507812 C 124.679688 196.507812 124.796875 200.300781 124.089844 203.976562 C 123.378906 207.652344 123.851562 213.699219 125.742188 216.425781 C 127.636719 219.152344 130.117188 220.574219 132.957031 222.472656 C 135.792969 224.371094 137.566406 224.960938 138.75 226.503906 C 139.933594 228.046875 142.296875 229.707031 142.296875 228.164062 C 142.296875 226.621094 139.222656 222.828125 137.09375 221.050781 C 134.964844 219.273438 130.238281 214.527344 130.589844 210.855469 C 130.945312 207.179688 130.828125 196.980469 130.945312 195.203125 C 131.0625 193.425781 132.484375 183.347656 131.417969 182.753906 Z M 131.417969 182.753906 " fill-opacity="1" fill-rule="nonzero"/><path fill="#d36c27" d="M 180.039062 190.050781 C 179.546875 189.667969 179.050781 189.285156 178.554688 188.898438 C 177.367188 187.699219 176.542969 186.28125 176.085938 184.652344 C 176.085938 184.652344 176.085938 184.648438 176.085938 184.648438 C 175.96875 184.34375 175.859375 184.027344 175.769531 183.703125 C 175.65625 182.847656 175.542969 181.996094 175.425781 181.140625 C 175.414062 180.851562 175.421875 180.566406 175.441406 180.285156 C 175.101562 180.09375 174.808594 180.164062 174.640625 180.644531 C 174.144531 182.101562 175.839844 186.6875 177.285156 189.058594 C 177.714844 189.769531 178.285156 190.808594 178.828125 192.007812 C 179.15625 191.402344 179.574219 190.847656 180.078125 190.34375 Z M 180.039062 190.050781 " fill-opacity="1" fill-rule="nonzero"/><path fill="#d36c27" d="M 182.234375 205.269531 C 181.585938 204.769531 180.9375 204.265625 180.289062 203.765625 C 179.960938 203.433594 179.660156 203.078125 179.386719 202.714844 C 177.761719 206.917969 175.386719 214.121094 174.808594 215.519531 C 174.125 217.164062 169.546875 226.25 170.363281 227.15625 C 170.363281 227.15625 174.777344 227.035156 181.15625 216.308594 C 181.15625 216.308594 182.265625 212.675781 184.113281 209.425781 C 184.550781 208.65625 184.941406 207.609375 185.269531 206.410156 C 184.210938 206.210938 183.199219 205.828125 182.234375 205.269531 Z M 182.234375 205.269531 " fill-opacity="1" fill-rule="nonzero"/><path fill="#f16b97" d="M 180.289062 203.761719 C 179.101562 202.558594 178.277344 201.140625 177.820312 199.511719 C 177.703125 198.65625 177.589844 197.804688 177.476562 196.949219 C 177.425781 195.621094 177.699219 194.386719 178.304688 193.238281 C 178.664062 192.136719 179.253906 191.175781 180.078125 190.347656 C 180.066406 190.246094 180.050781 190.148438 180.039062 190.050781 C 179.546875 189.667969 179.050781 189.285156 178.554688 188.898438 C 177.367188 187.699219 176.542969 186.28125 176.085938 184.652344 C 176.085938 184.652344 176.085938 184.648438 176.085938 184.648438 C 175.96875 184.34375 175.859375 184.027344 175.769531 183.703125 C 175.65625 182.847656 175.542969 181.996094 175.425781 181.140625 C 175.410156 180.71875 175.425781 180.308594 175.476562 179.902344 C 174.324219 179.234375 173.144531 178.59375 172.105469 177.832031 C 169.589844 175.996094 167.484375 173.152344 164.460938 172.167969 C 161.546875 171.21875 158.191406 172.246094 154.960938 172.246094 C 151.726562 172.246094 148.375 171.21875 145.457031 172.167969 C 142.433594 173.152344 140.328125 175.992188 137.816406 177.832031 C 135.273438 179.683594 131.933594 180.824219 130.085938 183.371094 C 128.257812 185.890625 128.195312 189.421875 127.214844 192.453125 C 126.269531 195.378906 124.21875 198.253906 124.21875 201.492188 C 124.21875 204.730469 126.269531 207.609375 127.214844 210.53125 C 128.195312 213.5625 128.257812 217.085938 130.085938 219.613281 C 131.933594 222.160156 135.273438 223.300781 137.816406 225.152344 C 140.328125 226.984375 142.433594 229.832031 145.457031 230.816406 C 148.375 231.765625 151.726562 230.738281 154.960938 230.738281 C 158.191406 230.738281 161.546875 231.765625 164.460938 230.816406 C 167.484375 229.832031 169.589844 226.992188 172.105469 225.152344 C 174.648438 223.300781 177.984375 222.15625 179.832031 219.613281 C 181.660156 217.089844 181.726562 213.5625 182.707031 210.53125 C 183.167969 209.097656 183.898438 207.683594 184.515625 206.230469 C 183.726562 206.011719 182.964844 205.6875 182.234375 205.261719 C 181.582031 204.761719 180.9375 204.261719 180.289062 203.761719 Z M 154.960938 211.296875 C 149.558594 211.296875 145.1875 206.910156 145.1875 201.496094 C 145.1875 196.082031 149.558594 191.695312 154.960938 191.695312 C 160.359375 191.695312 164.734375 196.082031 164.734375 201.496094 C 164.734375 206.910156 160.359375 211.296875 154.960938 211.296875 Z M 154.960938 211.296875 " fill-opacity="1" fill-rule="nonzero"/><path fill="#f27f9d" d="M 146.40625 179.402344 C 146.40625 179.402344 142.9375 178.453125 140.257812 183.195312 C 137.578125 187.941406 136.003906 187.78125 136.789062 190.941406 C 137.578125 194.105469 134.582031 198.6875 137.738281 198.214844 C 140.890625 197.742188 140.574219 196.160156 141.679688 194.421875 C 142.78125 192.683594 143.570312 190.3125 146.878906 189.203125 C 150.191406 188.097656 152.398438 187.148438 153.027344 185.410156 C 153.660156 183.671875 152.871094 179.085938 146.40625 179.402344 Z M 146.40625 179.402344 " fill-opacity="1" fill-rule="nonzero"/><path fill="#f7afc1" d="M 143.277344 184.792969 C 145.621094 182.644531 148.28125 181.28125 149.480469 183.195312 C 150.765625 185.246094 148.535156 184.382812 145.226562 186.042969 C 141.914062 187.703125 140.8125 190.863281 140.203125 190.722656 C 139.519531 190.5625 141.480469 186.445312 143.277344 184.792969 Z M 143.277344 184.792969 " fill-opacity="1" fill-rule="nonzero"/><path fill="#f27f9d" d="M 136.476562 206.277344 C 136.476562 206.277344 131.429688 206.277344 132.375 209.597656 C 133.324219 212.917969 133.953125 213.550781 135.6875 217.183594 C 137.421875 220.820312 136.632812 223.824219 140.730469 224.300781 C 144.832031 224.773438 154.761719 226.195312 148.140625 222.402344 C 141.519531 218.609375 143.097656 222.085938 141.046875 217.660156 C 138.996094 213.234375 140.257812 215.128906 138.996094 211.019531 C 137.738281 206.910156 137.738281 206.910156 136.476562 206.277344 Z M 136.476562 206.277344 " fill-opacity="1" fill-rule="nonzero"/><path fill="#f7b0bf" d="M 157.996094 190.628906 C 157.996094 190.628906 160.832031 189.203125 162.566406 191.734375 C 164.300781 194.261719 165.402344 201.851562 167.296875 203.90625 C 169.1875 205.960938 163.347656 211.445312 160.863281 211.445312 C 159.066406 211.445312 160.488281 209.648438 160.980469 209.195312 C 161.542969 208.675781 164.464844 205.722656 164.695312 203.195312 C 165.042969 199.40625 164.082031 195.761719 160.402344 193.378906 C 159.660156 192.898438 156.324219 191.597656 157.996094 190.628906 Z M 157.996094 190.628906 " fill-opacity="1" fill-rule="nonzero"/><path fill="#ee3d82" d="M 149.441406 191.21875 C 149.441406 191.21875 148.652344 193.433594 145.1875 195.328125 C 141.71875 197.226562 141.875 199.914062 142.980469 201.335938 C 144.082031 202.761719 144.554688 208.292969 146.445312 209.558594 C 148.339844 210.820312 148.289062 209.667969 146.554688 206.824219 C 144.820312 203.976562 144.1875 198.167969 147.234375 195.171875 C 149.890625 192.558594 151.492188 191.851562 149.441406 191.21875 Z M 149.441406 191.21875 " fill-opacity="1" fill-rule="nonzero"/><path fill="#f7b2c3" d="M 136.476562 211.335938 C 136.476562 211.335938 136.003906 212.285156 136.949219 215.445312 C 137.894531 218.609375 138.210938 220.980469 139.785156 221.925781 C 141.363281 222.875 143.886719 223.507812 144.199219 223.191406 C 144.515625 222.875 142.464844 223.191406 141.363281 221.453125 C 140.257812 219.714844 137.894531 210.386719 136.476562 211.335938 Z M 136.476562 211.335938 " fill-opacity="1" fill-rule="nonzero"/><path fill="#f7b1c2" d="M 144.660156 229.472656 C 143.359375 228.40625 142.414062 226.269531 141.46875 225.441406 C 140.523438 224.609375 135.085938 222.238281 134.609375 221.171875 C 134.136719 220.105469 133.546875 219.394531 132.835938 218.328125 C 132.128906 217.261719 131.417969 217.140625 130.238281 214.414062 C 129.054688 211.6875 129.527344 210.738281 129.054688 209.554688 C 128.582031 208.367188 128.34375 206.828125 127.988281 205.640625 C 127.636719 204.457031 128.699219 200.660156 128.34375 199.355469 C 127.988281 198.054688 129.054688 196.394531 129.054688 195.445312 C 129.054688 194.496094 128.816406 192.125 129.171875 190.820312 C 129.527344 189.515625 130.472656 186.195312 131.0625 184.890625 C 131.65625 183.589844 133.902344 181.808594 137.449219 179.675781 C 140.996094 177.542969 142.652344 175.171875 143.007812 174.933594 C 143.226562 174.785156 143.261719 173.914062 143.261719 173.269531 C 141.316406 174.570312 139.679688 176.480469 137.816406 177.839844 C 135.273438 179.691406 131.933594 180.832031 130.085938 183.378906 C 128.257812 185.898438 128.195312 189.429688 127.214844 192.460938 C 126.269531 195.386719 124.21875 198.261719 124.21875 201.5 C 124.21875 204.738281 126.269531 207.617188 127.214844 210.539062 C 128.195312 213.570312 128.257812 217.09375 130.085938 219.621094 C 131.933594 222.167969 135.273438 223.308594 137.816406 225.160156 C 140.328125 226.996094 142.433594 229.839844 145.457031 230.824219 C 145.699219 230.902344 145.9375 230.964844 146.183594 231.015625 C 145.761719 230.5 145.210938 229.921875 144.660156 229.472656 Z M 144.660156 229.472656 " fill-opacity="1" fill-rule="nonzero"/><path fill="#f27f9d" d="M 177.820312 199.511719 C 177.703125 198.65625 177.589844 197.804688 177.476562 196.949219 C 177.425781 195.621094 177.699219 194.386719 178.304688 193.238281 C 178.335938 193.140625 178.371094 193.042969 178.40625 192.941406 C 176.429688 188.867188 172.414062 184.773438 170.210938 182.566406 C 166.902344 179.246094 162.804688 180.824219 161.699219 181.773438 C 160.597656 182.722656 162.804688 185.253906 166.429688 186.992188 C 170.054688 188.730469 170.371094 191.890625 170.371094 191.890625 C 170.210938 196.792969 172.734375 198.058594 172.417969 203.90625 C 172.105469 209.753906 169.109375 211.335938 164.0625 216.078125 C 159.019531 220.820312 161.382812 221.136719 162.804688 220.820312 C 164.222656 220.503906 167.375 218.449219 169.898438 218.925781 C 172.417969 219.398438 174.46875 216.867188 175.414062 213.234375 C 176.207031 210.191406 177.332031 205.929688 178.597656 201.472656 C 178.273438 200.855469 178.011719 200.203125 177.820312 199.511719 Z M 177.820312 199.511719 " fill-opacity="1" fill-rule="nonzero"/><path fill="#f7afc2" d="M 170.984375 188.339844 C 170.984375 188.339844 172.816406 190.710938 173.113281 194.503906 C 173.410156 198.296875 173.171875 199.660156 173.882812 200.789062 C 174.589844 201.914062 177.605469 198.652344 176.246094 195.808594 C 174.886719 192.960938 171.515625 186.144531 170.984375 188.339844 Z M 170.984375 188.339844 " fill-opacity="1" fill-rule="nonzero"/><path fill="#f7afc2" d="M 167.203125 216.261719 C 166.09375 215.765625 169.921875 214.542969 170.691406 212.585938 C 171.457031 210.628906 171.753906 213.472656 171.753906 213.472656 C 171.753906 213.472656 172.402344 216.199219 171.339844 216.675781 C 170.277344 217.148438 167.734375 216.496094 167.203125 216.261719 Z M 167.203125 216.261719 " fill-opacity="1" fill-rule="nonzero"/><path fill="#ee3d82" d="M 182.414062 205.371094 C 182.140625 205.898438 181.804688 206.410156 181.40625 206.910156 C 177.621094 211.652344 176.519531 212.757812 175.730469 216.554688 C 174.941406 220.347656 174.785156 218.132812 169.425781 222.558594 C 164.0625 226.984375 165.167969 227.460938 162.015625 229.359375 C 158.863281 231.253906 150.8125 229.753906 145.457031 230.820312 C 148.375 231.769531 151.726562 230.742188 154.960938 230.742188 C 158.191406 230.742188 161.546875 231.769531 164.460938 230.820312 C 167.484375 229.835938 169.589844 226.996094 172.105469 225.15625 C 174.648438 223.304688 177.984375 222.160156 179.832031 219.617188 C 181.660156 217.09375 181.726562 213.566406 182.707031 210.535156 C 183.167969 209.101562 183.898438 207.6875 184.515625 206.234375 C 183.789062 206.03125 183.09375 205.746094 182.414062 205.371094 Z M 182.414062 205.371094 " fill-opacity="1" fill-rule="nonzero"/><path fill="#ee3d82" d="M 175.710938 178.765625 C 174.761719 177.882812 173.777344 177.058594 172.804688 176.351562 C 170.292969 174.519531 167.484375 173.15625 164.460938 172.171875 C 161.546875 171.222656 158.191406 172.25 154.960938 172.25 C 154.191406 172.25 153.414062 172.191406 152.640625 172.117188 C 153.222656 172.78125 154.101562 173.601562 155.078125 173.871094 C 156.8125 174.34375 160.753906 175.292969 165.011719 176.082031 C 167.75 176.59375 172.191406 178.542969 175.425781 180.542969 C 175.449219 179.933594 175.546875 179.339844 175.710938 178.765625 Z M 175.710938 178.765625 " fill-opacity="1" fill-rule="nonzero"/><path fill="#aadff1" d="M 161.335938 226.625 C 161.238281 226.625 161.136719 226.59375 161.050781 226.53125 L 159.109375 225.054688 C 158.902344 224.894531 158.863281 224.597656 159.019531 224.390625 C 159.175781 224.179688 159.472656 224.140625 159.679688 224.300781 L 161.621094 225.777344 C 161.828125 225.933594 161.867188 226.230469 161.710938 226.441406 C 161.621094 226.5625 161.480469 226.625 161.335938 226.625 Z M 161.335938 226.625 " fill-opacity="1" fill-rule="nonzero"/><path fill="#00a651" d="M 140.101562 224.949219 C 139.945312 224.949219 139.792969 224.871094 139.703125 224.734375 L 138.355469 222.617188 C 138.214844 222.394531 138.28125 222.101562 138.496094 221.960938 C 138.71875 221.816406 139.007812 221.882812 139.152344 222.105469 L 140.5 224.222656 C 140.640625 224.445312 140.574219 224.738281 140.359375 224.878906 C 140.273438 224.925781 140.1875 224.949219 140.101562 224.949219 Z M 140.101562 224.949219 " fill-opacity="1" fill-rule="nonzero"/><path fill="#fff200" d="M 166.796875 222.15625 C 166.789062 222.15625 166.777344 222.15625 166.769531 222.15625 C 166.507812 222.140625 166.308594 221.914062 166.324219 221.65625 L 166.492188 218.8125 C 166.507812 218.550781 166.734375 218.355469 166.992188 218.367188 C 167.253906 218.382812 167.453125 218.609375 167.4375 218.867188 L 167.269531 221.710938 C 167.25 221.964844 167.042969 222.15625 166.796875 222.15625 Z M 166.796875 222.15625 " fill-opacity="1" fill-rule="nonzero"/><path fill="#ffffff" d="M 136.976562 184.769531 C 136.886719 184.769531 136.792969 184.742188 136.710938 184.691406 L 134.4375 183.164062 C 134.222656 183.019531 134.160156 182.726562 134.308594 182.507812 C 134.453125 182.292969 134.746094 182.234375 134.960938 182.378906 L 137.234375 183.90625 C 137.453125 184.050781 137.511719 184.34375 137.367188 184.5625 C 137.28125 184.695312 137.128906 184.769531 136.976562 184.769531 Z M 136.976562 184.769531 " fill-opacity="1" fill-rule="nonzero"/><path fill="#00aeef" d="M 135.910156 202.910156 C 135.78125 202.910156 135.652344 202.855469 135.558594 202.75 L 133.636719 200.5625 C 133.464844 200.363281 133.484375 200.066406 133.679688 199.894531 C 133.878906 199.722656 134.175781 199.742188 134.347656 199.9375 L 136.265625 202.128906 C 136.441406 202.324219 136.421875 202.625 136.222656 202.796875 C 136.132812 202.871094 136.023438 202.910156 135.910156 202.910156 Z M 135.910156 202.910156 " fill-opacity="1" fill-rule="nonzero"/><path fill="#fff200" d="M 130 207.179688 C 129.855469 207.179688 129.710938 207.109375 129.621094 206.988281 L 127.988281 204.792969 C 127.832031 204.582031 127.875 204.285156 128.089844 204.128906 C 128.296875 203.96875 128.59375 204.011719 128.75 204.226562 L 130.382812 206.421875 C 130.539062 206.632812 130.496094 206.929688 130.285156 207.085938 C 130.195312 207.152344 130.097656 207.179688 130 207.179688 Z M 130 207.179688 " fill-opacity="1" fill-rule="nonzero"/><path fill="#aadff1" d="M 132.425781 218.457031 C 132.402344 218.457031 132.386719 218.457031 132.367188 218.453125 C 132.109375 218.421875 131.921875 218.1875 131.953125 217.929688 L 132.25 215.421875 C 132.28125 215.160156 132.515625 214.976562 132.773438 215.007812 C 133.035156 215.039062 133.21875 215.273438 133.1875 215.53125 L 132.894531 218.039062 C 132.867188 218.28125 132.660156 218.457031 132.425781 218.457031 Z M 132.425781 218.457031 " fill-opacity="1" fill-rule="nonzero"/><path fill="#00aeef" d="M 140.285156 216.546875 C 140.203125 216.546875 140.117188 216.523438 140.042969 216.480469 C 139.816406 216.347656 139.746094 216.054688 139.882812 215.828125 L 141.222656 213.621094 C 141.355469 213.394531 141.644531 213.324219 141.871094 213.460938 C 142.097656 213.597656 142.167969 213.890625 142.027344 214.113281 L 140.691406 216.324219 C 140.601562 216.464844 140.449219 216.546875 140.285156 216.546875 Z M 140.285156 216.546875 " fill-opacity="1" fill-rule="nonzero"/><path fill="#ffffff" d="M 137.566406 210.140625 L 134.550781 210.132812 C 134.292969 210.132812 134.078125 209.921875 134.078125 209.660156 C 134.078125 209.398438 134.292969 209.1875 134.550781 209.1875 L 137.566406 209.195312 C 137.828125 209.195312 138.039062 209.40625 138.039062 209.667969 C 138.039062 209.933594 137.828125 210.140625 137.566406 210.140625 Z M 137.566406 210.140625 " fill-opacity="1" fill-rule="nonzero"/><path fill="#ec008c" d="M 144.542969 208.839844 C 144.472656 208.839844 144.402344 208.824219 144.332031 208.785156 L 142 207.621094 C 141.769531 207.503906 141.675781 207.21875 141.789062 206.984375 C 141.90625 206.75 142.191406 206.65625 142.421875 206.769531 L 144.753906 207.9375 C 144.984375 208.054688 145.078125 208.339844 144.964844 208.574219 C 144.882812 208.742188 144.714844 208.839844 144.542969 208.839844 Z M 144.542969 208.839844 " fill-opacity="1" fill-rule="nonzero"/><path fill="#ec008c" d="M 167.230469 201.546875 C 167.125 201.546875 167.023438 201.515625 166.9375 201.449219 C 166.734375 201.285156 166.691406 200.988281 166.855469 200.785156 L 168.648438 198.472656 C 168.808594 198.265625 169.105469 198.226562 169.308594 198.390625 C 169.515625 198.550781 169.554688 198.847656 169.394531 199.054688 L 167.597656 201.363281 C 167.507812 201.484375 167.367188 201.546875 167.230469 201.546875 Z M 167.230469 201.546875 " fill-opacity="1" fill-rule="nonzero"/><path fill="#39b54a" d="M 172.332031 207.179688 C 172.253906 207.179688 172.171875 207.160156 172.097656 207.113281 L 169.566406 205.660156 C 169.339844 205.53125 169.261719 205.242188 169.394531 205.011719 C 169.523438 204.789062 169.8125 204.707031 170.039062 204.839844 L 172.570312 206.292969 C 172.792969 206.421875 172.871094 206.710938 172.742188 206.941406 C 172.65625 207.09375 172.496094 207.179688 172.332031 207.179688 Z M 172.332031 207.179688 " fill-opacity="1" fill-rule="nonzero"/><path fill="#00aeef" d="M 179.289062 207.007812 C 179.207031 207.007812 179.125 206.988281 179.050781 206.941406 C 178.824219 206.808594 178.75 206.519531 178.878906 206.292969 L 179.964844 204.453125 C 180.097656 204.226562 180.386719 204.152344 180.609375 204.28125 C 180.835938 204.414062 180.910156 204.703125 180.777344 204.929688 L 179.695312 206.769531 C 179.613281 206.925781 179.453125 207.007812 179.289062 207.007812 Z M 179.289062 207.007812 " fill-opacity="1" fill-rule="nonzero"/><path fill="#aadff1" d="M 166.304688 212.871094 C 166.277344 212.871094 166.253906 212.871094 166.230469 212.867188 C 165.972656 212.824219 165.792969 212.585938 165.835938 212.324219 L 166.269531 209.492188 C 166.3125 209.230469 166.550781 209.054688 166.8125 209.09375 C 167.070312 209.132812 167.25 209.375 167.207031 209.636719 L 166.773438 212.46875 C 166.734375 212.703125 166.53125 212.871094 166.304688 212.871094 Z M 166.304688 212.871094 " fill-opacity="1" fill-rule="nonzero"/><path fill="#ffffff" d="M 178.355469 214.429688 C 178.199219 214.429688 178.046875 214.351562 177.957031 214.214844 L 176.433594 211.820312 C 176.289062 211.601562 176.351562 211.308594 176.574219 211.167969 C 176.792969 211.023438 177.085938 211.085938 177.226562 211.308594 L 178.753906 213.699219 C 178.894531 213.921875 178.832031 214.214844 178.613281 214.355469 C 178.527344 214.40625 178.441406 214.429688 178.355469 214.429688 Z M 178.355469 214.429688 " fill-opacity="1" fill-rule="nonzero"/><path fill="#ec008c" d="M 174.234375 218.664062 C 174.136719 218.664062 174.039062 218.636719 173.957031 218.574219 L 172.171875 217.289062 C 171.957031 217.132812 171.910156 216.835938 172.066406 216.628906 C 172.21875 216.414062 172.515625 216.367188 172.722656 216.519531 L 174.507812 217.804688 C 174.722656 217.960938 174.769531 218.257812 174.613281 218.464844 C 174.527344 218.59375 174.382812 218.664062 174.234375 218.664062 Z M 174.234375 218.664062 " fill-opacity="1" fill-rule="nonzero"/><path fill="#fff200" d="M 149.328125 216.304688 C 149.097656 216.304688 148.898438 216.136719 148.863281 215.90625 C 148.824219 215.648438 148.996094 215.402344 149.257812 215.363281 L 152.15625 214.898438 C 152.417969 214.855469 152.660156 215.03125 152.699219 215.292969 C 152.738281 215.550781 152.5625 215.792969 152.304688 215.832031 L 149.402344 216.300781 C 149.378906 216.300781 149.351562 216.304688 149.328125 216.304688 Z M 149.328125 216.304688 " fill-opacity="1" fill-rule="nonzero"/><path fill="#ffffff" d="M 146.691406 223.351562 C 146.539062 223.351562 146.386719 223.273438 146.292969 223.136719 L 144.21875 219.964844 C 144.078125 219.746094 144.136719 219.449219 144.359375 219.308594 C 144.574219 219.164062 144.871094 219.222656 145.011719 219.445312 L 147.085938 222.621094 C 147.226562 222.835938 147.167969 223.132812 146.949219 223.273438 C 146.867188 223.324219 146.777344 223.351562 146.691406 223.351562 Z M 146.691406 223.351562 " fill-opacity="1" fill-rule="nonzero"/><path fill="#00aeef" d="M 154.1875 223.832031 C 154.027344 223.832031 153.867188 223.75 153.777344 223.597656 L 152.292969 221.058594 C 152.160156 220.832031 152.238281 220.539062 152.460938 220.410156 C 152.6875 220.277344 152.976562 220.355469 153.109375 220.578125 L 154.59375 223.121094 C 154.722656 223.347656 154.648438 223.640625 154.425781 223.769531 C 154.351562 223.8125 154.269531 223.832031 154.1875 223.832031 Z M 154.1875 223.832031 " fill-opacity="1" fill-rule="nonzero"/><path fill="#ec008c" d="M 148.15625 228.496094 C 147.921875 228.496094 147.714844 228.316406 147.6875 228.078125 C 147.65625 227.816406 147.84375 227.582031 148.101562 227.550781 L 150.871094 227.222656 C 151.132812 227.191406 151.367188 227.378906 151.398438 227.636719 C 151.429688 227.898438 151.242188 228.132812 150.984375 228.164062 L 148.210938 228.492188 C 148.195312 228.492188 148.175781 228.496094 148.15625 228.496094 Z M 148.15625 228.496094 " fill-opacity="1" fill-rule="nonzero"/><path fill="#ffffff" d="M 159 219.191406 C 158.738281 219.191406 158.527344 218.980469 158.527344 218.71875 L 158.527344 214.925781 C 158.527344 214.664062 158.738281 214.449219 159 214.449219 C 159.261719 214.449219 159.472656 214.664062 159.472656 214.925781 L 159.472656 218.71875 C 159.472656 218.980469 159.261719 219.191406 159 219.191406 Z M 159 219.191406 " fill-opacity="1" fill-rule="nonzero"/><path fill="#aadff1" d="M 148.679688 177.417969 C 148.59375 177.417969 148.503906 177.394531 148.425781 177.34375 L 146.308594 175.972656 C 146.089844 175.832031 146.023438 175.539062 146.167969 175.316406 C 146.308594 175.09375 146.601562 175.03125 146.820312 175.175781 L 148.9375 176.546875 C 149.160156 176.6875 149.222656 176.980469 149.078125 177.203125 C 148.988281 177.339844 148.839844 177.417969 148.679688 177.417969 Z M 148.679688 177.417969 " fill-opacity="1" fill-rule="nonzero"/><path fill="#00aeef" d="M 169.984375 180.648438 C 169.890625 180.648438 169.789062 180.621094 169.707031 180.558594 L 168.035156 179.339844 C 167.824219 179.1875 167.777344 178.890625 167.929688 178.675781 C 168.085938 178.460938 168.378906 178.414062 168.59375 178.570312 L 170.265625 179.785156 C 170.476562 179.941406 170.523438 180.238281 170.371094 180.449219 C 170.277344 180.582031 170.128906 180.648438 169.984375 180.648438 Z M 169.984375 180.648438 " fill-opacity="1" fill-rule="nonzero"/><path fill="#00a651" d="M 142.296875 181.6875 C 142.292969 181.6875 142.285156 181.6875 142.28125 181.6875 C 142.019531 181.679688 141.816406 181.457031 141.824219 181.199219 L 141.898438 178.847656 C 141.90625 178.585938 142.128906 178.378906 142.386719 178.386719 C 142.648438 178.394531 142.851562 178.617188 142.84375 178.878906 L 142.769531 181.230469 C 142.761719 181.480469 142.554688 181.6875 142.296875 181.6875 Z M 142.296875 181.6875 " fill-opacity="1" fill-rule="nonzero"/><path fill="#39b54a" d="M 177.765625 189.785156 C 177.625 189.785156 177.488281 189.726562 177.398438 189.605469 L 175.480469 187.226562 C 175.316406 187.023438 175.347656 186.726562 175.554688 186.558594 C 175.757812 186.394531 176.054688 186.425781 176.21875 186.632812 L 178.132812 189.011719 C 178.300781 189.214844 178.269531 189.511719 178.0625 189.679688 C 177.972656 189.75 177.871094 189.785156 177.765625 189.785156 Z M 177.765625 189.785156 " fill-opacity="1" fill-rule="nonzero"/><path fill="#fff200" d="M 167.78125 188.457031 C 167.699219 188.457031 167.621094 188.4375 167.542969 188.394531 C 167.320312 188.261719 167.242188 187.972656 167.375 187.746094 L 168.972656 185.007812 C 169.101562 184.78125 169.394531 184.703125 169.617188 184.835938 C 169.84375 184.96875 169.921875 185.261719 169.785156 185.484375 L 168.191406 188.222656 C 168.105469 188.371094 167.941406 188.457031 167.78125 188.457031 Z M 167.78125 188.457031 " fill-opacity="1" fill-rule="nonzero"/><g clip-path="url(#738b4d1ae1)"><path fill="#ec008c" d="M 187.527344 192.101562 C 187.4375 192.058594 187.351562 191.988281 187.300781 191.890625 C 187.179688 191.660156 187.269531 191.375 187.5 191.25 L 188.769531 190.664062 C 189 190.539062 189.285156 190.632812 189.40625 190.859375 C 189.527344 191.09375 189.4375 191.378906 189.210938 191.5 L 187.941406 192.089844 C 187.804688 192.15625 187.65625 192.15625 187.527344 192.101562 Z M 187.527344 192.101562 " fill-opacity="1" fill-rule="nonzero"/></g><path fill="#00aeef" d="M 182.988281 181.515625 C 182.894531 181.515625 182.796875 181.488281 182.714844 181.425781 L 181.558594 180.566406 C 181.347656 180.410156 181.300781 180.113281 181.453125 179.902344 C 181.605469 179.6875 181.902344 179.640625 182.113281 179.792969 L 183.269531 180.65625 C 183.484375 180.808594 183.53125 181.105469 183.375 181.320312 C 183.28125 181.449219 183.136719 181.515625 182.988281 181.515625 Z M 182.988281 181.515625 " fill-opacity="1" fill-rule="nonzero"/><path fill="#fff200" d="M 186.933594 185.53125 C 186.851562 185.53125 186.773438 185.511719 186.699219 185.46875 C 186.472656 185.339844 186.394531 185.046875 186.53125 184.820312 L 187.921875 182.484375 C 188.050781 182.261719 188.34375 182.179688 188.566406 182.316406 C 188.792969 182.445312 188.871094 182.738281 188.738281 182.964844 L 187.34375 185.300781 C 187.257812 185.445312 187.097656 185.53125 186.933594 185.53125 Z M 186.933594 185.53125 " fill-opacity="1" fill-rule="nonzero"/><path fill="#00aeef" d="M 174.96875 193.488281 C 174.964844 193.488281 174.960938 193.488281 174.957031 193.488281 L 172.320312 193.425781 C 172.0625 193.417969 171.851562 193.199219 171.859375 192.9375 C 171.867188 192.683594 172.078125 192.476562 172.332031 192.476562 C 172.335938 192.476562 172.339844 192.476562 172.34375 192.476562 L 174.980469 192.539062 C 175.242188 192.546875 175.449219 192.765625 175.441406 193.027344 C 175.433594 193.28125 175.226562 193.488281 174.96875 193.488281 Z M 174.96875 193.488281 " fill-opacity="1" fill-rule="nonzero"/><path fill="#aadff1" d="M 164.882812 193.542969 C 164.695312 193.542969 164.515625 193.429688 164.441406 193.242188 L 163.445312 190.695312 C 163.351562 190.449219 163.46875 190.175781 163.714844 190.078125 C 163.957031 189.984375 164.230469 190.101562 164.328125 190.347656 L 165.324219 192.894531 C 165.421875 193.140625 165.300781 193.414062 165.058594 193.511719 C 165 193.53125 164.9375 193.542969 164.882812 193.542969 Z M 164.882812 193.542969 " fill-opacity="1" fill-rule="nonzero"/><path fill="#39b54a" d="M 143.621094 200.269531 C 143.539062 200.269531 143.453125 200.246094 143.375 200.199219 L 141.105469 198.808594 C 140.882812 198.667969 140.816406 198.382812 140.949219 198.15625 C 141.085938 197.929688 141.375 197.863281 141.597656 197.996094 L 143.871094 199.390625 C 144.09375 199.527344 144.160156 199.816406 144.027344 200.039062 C 143.9375 200.191406 143.777344 200.269531 143.621094 200.269531 Z M 143.621094 200.269531 " fill-opacity="1" fill-rule="nonzero"/><path fill="#39b54a" d="M 187.625 202.390625 C 187.542969 202.390625 187.457031 202.367188 187.378906 202.320312 L 186.273438 201.574219 C 186.046875 201.4375 185.980469 201.148438 186.117188 200.921875 C 186.253906 200.695312 186.542969 200.628906 186.765625 200.765625 L 187.875 201.511719 C 188.097656 201.648438 188.164062 201.9375 188.03125 202.164062 C 187.9375 202.3125 187.78125 202.390625 187.625 202.390625 Z M 187.625 202.390625 " fill-opacity="1" fill-rule="nonzero"/><path fill="#00a651" d="M 128.34375 198.40625 C 128.25 198.40625 128.15625 198.378906 128.074219 198.316406 C 127.859375 198.167969 127.808594 197.871094 127.957031 197.65625 L 129.375 195.632812 C 129.523438 195.421875 129.820312 195.371094 130.03125 195.519531 C 130.246094 195.667969 130.296875 195.964844 130.144531 196.179688 L 128.730469 198.203125 C 128.640625 198.332031 128.492188 198.40625 128.34375 198.40625 Z M 128.34375 198.40625 " fill-opacity="1" fill-rule="nonzero"/><path fill="#aadff1" d="M 145.109375 192.644531 C 144.929688 192.644531 144.753906 192.535156 144.675781 192.355469 L 143.640625 189.933594 C 143.539062 189.695312 143.648438 189.417969 143.890625 189.3125 C 144.128906 189.207031 144.40625 189.320312 144.511719 189.558594 L 145.546875 191.980469 C 145.652344 192.21875 145.539062 192.496094 145.300781 192.601562 C 145.238281 192.628906 145.167969 192.644531 145.109375 192.644531 Z M 145.109375 192.644531 " fill-opacity="1" fill-rule="nonzero"/><path fill="#ec008c" d="M 132.835938 189.867188 C 132.675781 189.867188 132.519531 189.785156 132.433594 189.636719 L 130.996094 187.222656 C 130.863281 187 130.9375 186.707031 131.164062 186.574219 C 131.386719 186.441406 131.679688 186.515625 131.808594 186.742188 L 133.238281 189.15625 C 133.375 189.382812 133.300781 189.675781 133.074219 189.804688 C 133.003906 189.84375 132.921875 189.867188 132.835938 189.867188 Z M 132.835938 189.867188 " fill-opacity="1" fill-rule="nonzero"/><path fill="#fff200" d="M 137.527344 194.257812 C 137.449219 194.257812 137.371094 194.238281 137.296875 194.195312 C 137.066406 194.066406 136.988281 193.777344 137.117188 193.546875 L 138.457031 191.171875 C 138.589844 190.941406 138.875 190.863281 139.105469 190.996094 C 139.332031 191.125 139.410156 191.414062 139.28125 191.644531 L 137.941406 194.019531 C 137.855469 194.171875 137.691406 194.257812 137.527344 194.257812 Z M 137.527344 194.257812 " fill-opacity="1" fill-rule="nonzero"/><path fill="#ffffff" d="M 156.097656 188.605469 C 155.867188 188.605469 155.660156 188.429688 155.628906 188.191406 C 155.59375 187.933594 155.78125 187.695312 156.035156 187.660156 L 159.027344 187.265625 C 159.289062 187.226562 159.523438 187.414062 159.558594 187.671875 C 159.59375 187.933594 159.410156 188.167969 159.152344 188.203125 L 156.160156 188.597656 C 156.136719 188.597656 156.117188 188.605469 156.097656 188.605469 Z M 156.097656 188.605469 " fill-opacity="1" fill-rule="nonzero"/><path fill="#ec008c" d="M 163.9375 182.636719 C 163.78125 182.636719 163.621094 182.558594 163.53125 182.40625 L 161.957031 179.808594 C 161.820312 179.585938 161.890625 179.296875 162.113281 179.15625 C 162.339844 179.023438 162.625 179.089844 162.761719 179.316406 L 164.339844 181.914062 C 164.472656 182.136719 164.40625 182.425781 164.183594 182.566406 C 164.109375 182.613281 164.019531 182.636719 163.9375 182.636719 Z M 163.9375 182.636719 " fill-opacity="1" fill-rule="nonzero"/><path fill="#00a651" d="M 156.65625 182.894531 C 156.480469 182.894531 156.3125 182.792969 156.230469 182.628906 L 154.996094 180.113281 C 154.882812 179.882812 154.976562 179.597656 155.210938 179.476562 C 155.445312 179.363281 155.726562 179.457031 155.847656 179.695312 L 157.082031 182.210938 C 157.195312 182.441406 157.101562 182.726562 156.863281 182.84375 C 156.796875 182.878906 156.726562 182.894531 156.65625 182.894531 Z M 156.65625 182.894531 " fill-opacity="1" fill-rule="nonzero"/><path fill="#fff200" d="M 157.148438 175.460938 C 156.921875 175.460938 156.726562 175.300781 156.683594 175.074219 C 156.636719 174.820312 156.804688 174.570312 157.066406 174.523438 L 160.175781 173.953125 C 160.429688 173.90625 160.679688 174.074219 160.726562 174.335938 C 160.773438 174.59375 160.605469 174.84375 160.34375 174.890625 L 157.234375 175.457031 C 157.207031 175.457031 157.179688 175.460938 157.148438 175.460938 Z M 157.148438 175.460938 " fill-opacity="1" fill-rule="nonzero"/><path fill="#ec008c" d="M 150.246094 187.507812 C 150.125 187.507812 150.003906 187.460938 149.910156 187.371094 L 147.996094 185.460938 C 147.808594 185.277344 147.808594 184.976562 147.992188 184.789062 C 148.175781 184.605469 148.476562 184.605469 148.660156 184.785156 L 150.578125 186.695312 C 150.761719 186.878906 150.761719 187.179688 150.582031 187.367188 C 150.488281 187.460938 150.367188 187.507812 150.246094 187.507812 Z M 150.246094 187.507812 " fill-opacity="1" fill-rule="nonzero"/><path fill="#f8ad53" d="M 132.601562 178.605469 C 132.601562 178.605469 137.09375 174.691406 139.222656 173.863281 C 141.351562 173.03125 139.105469 176.234375 136.503906 177.417969 C 133.902344 178.605469 130.828125 180.382812 130.828125 180.738281 C 130.828125 181.09375 130.589844 180.382812 132.601562 178.605469 Z M 132.601562 178.605469 " fill-opacity="1" fill-rule="nonzero"/><path fill="#f8ad53" d="M 175.875 178.277344 C 175.929688 178.082031 176 177.894531 176.074219 177.703125 C 175.238281 176.699219 173.398438 175.238281 172.453125 175.164062 C 172.453125 175.164062 173.984375 177.90625 175.785156 178.539062 C 175.8125 178.449219 175.84375 178.363281 175.875 178.277344 Z M 175.875 178.277344 " fill-opacity="1" fill-rule="nonzero"/><path fill="#f8ad53" d="M 149.863281 232.4375 C 151.519531 232.4375 155.65625 231.25 157.195312 232.082031 C 158.730469 232.910156 156.128906 234.332031 152.109375 233.742188 C 148.089844 233.148438 147.144531 232.4375 149.863281 232.4375 Z M 149.863281 232.4375 " fill-opacity="1" fill-rule="nonzero"/><path fill="#f8ad53" d="M 182.148438 217.496094 C 182.148438 217.496094 182.855469 214.652344 184.15625 212.398438 C 185.457031 210.144531 185.574219 211.6875 184.867188 212.875 C 184.15625 214.058594 182.5 218.800781 181.792969 219.394531 C 181.082031 219.988281 182.027344 218.207031 182.148438 217.496094 Z M 182.148438 217.496094 " fill-opacity="1" fill-rule="nonzero"/><path fill="#f8ad53" d="M 151.875 169.945312 C 151.875 169.945312 155.304688 169.351562 156.722656 169.828125 C 158.140625 170.300781 156.25 171.367188 152.582031 171.367188 C 148.917969 171.367188 147.972656 169.945312 151.875 169.945312 Z M 151.875 169.945312 " fill-opacity="1" fill-rule="nonzero"/><path fill="#ef9230" d="M 182.109375 186.214844 L 183.292969 185.503906 L 183.058594 186.847656 Z M 182.109375 186.214844 " fill-opacity="1" fill-rule="nonzero"/><path fill="#f16b97" d="M 186.339844 195.484375 L 187.300781 196.253906 C 187.359375 196.300781 187.324219 196.398438 187.253906 196.398438 L 185.207031 196.398438 C 185.125 196.398438 185.097656 196.296875 185.15625 196.253906 L 186.246094 195.484375 C 186.273438 195.464844 186.3125 195.464844 186.339844 195.484375 Z M 186.339844 195.484375 " fill-opacity="1" fill-rule="nonzero"/><path fill="#f27f9d" d="M 180.773438 195.605469 C 180.773438 195.605469 181.722656 193.710938 182.113281 193.710938 C 182.507812 193.710938 182.667969 194.421875 182.667969 194.421875 C 182.667969 194.421875 181.40625 196 180.933594 195.921875 " fill-opacity="1" fill-rule="nonzero"/><g clip-path="url(#f77a91ae6f)"><path fill="#e8a943" d="M 226.996094 211.695312 C 220.992188 211.695312 216.125 206.828125 216.125 200.824219 C 216.125 194.820312 220.992188 189.953125 226.996094 189.953125 C 233 189.953125 237.867188 194.820312 237.867188 200.824219 C 237.867188 206.828125 233 211.695312 226.996094 211.695312 Z M 227.585938 167.925781 C 209.273438 167.925781 194.425781 182.773438 194.425781 201.085938 C 194.425781 219.398438 209.273438 234.242188 227.585938 234.242188 C 245.898438 234.242188 260.746094 219.398438 260.746094 201.085938 C 260.746094 182.773438 245.898438 167.925781 227.585938 167.925781 " fill-opacity="1" fill-rule="nonzero"/></g><path fill="#d7832c" d="M 197.953125 186.496094 C 201.457031 178.5625 213.511719 168.523438 229.492188 167.960938 C 228.859375 167.925781 228.226562 167.902344 227.585938 167.902344 C 209.273438 167.902344 194.425781 182.75 194.425781 201.0625 C 194.425781 202.996094 194.601562 204.886719 194.917969 206.730469 C 194.726562 199.480469 195.785156 191.398438 197.953125 186.496094 " fill-opacity="1" fill-rule="nonzero"/><path fill="#e0983d" d="M 227.75 167.925781 C 209.433594 167.925781 194.589844 182.773438 194.589844 201.085938 C 194.589844 213.515625 201.433594 224.339844 211.554688 230.015625 C 211.132812 229.65625 204.386719 223.804688 202.984375 220.445312 C 201.535156 216.976562 197.628906 214.523438 196.761719 207.296875 C 195.890625 200.074219 194.230469 196.097656 199.65625 186.492188 C 205.082031 176.886719 211.378906 172.046875 221.65625 169.589844 C 221.65625 169.589844 231.351562 168.144531 236.5625 170.601562 C 241.773438 173.058594 246.707031 175.503906 249.589844 177.246094 C 252.460938 178.984375 259.25 189.757812 260.582031 196.472656 C 258.335938 180.34375 244.496094 167.925781 227.75 167.925781 " fill-opacity="1" fill-rule="nonzero"/><g clip-path="url(#e904f4a91d)"><path fill="#d7832c" d="M 260.746094 201.0625 C 260.746094 182.75 245.898438 167.902344 227.585938 167.902344 C 225.140625 167.902344 222.757812 168.175781 220.460938 168.679688 C 223.425781 169.339844 227.660156 170.199219 230.03125 170.289062 C 233.941406 170.433594 237.125 173.898438 242.335938 174.621094 C 247.546875 175.34375 253.914062 182.566406 254.496094 189.070312 C 255.074219 195.570312 258.546875 202.648438 258.402344 205.683594 C 258.257812 208.71875 255.796875 208.429688 253.191406 213.773438 C 250.585938 219.121094 247.113281 227.644531 241.613281 228.65625 C 236.113281 229.667969 233.363281 233.855469 221.78125 231.835938 C 210.203125 229.8125 210.78125 224.320312 201.808594 220.132812 C 200.945312 219.730469 200.152344 219.191406 199.417969 218.550781 C 205.269531 227.953125 215.695312 234.21875 227.585938 234.21875 C 245.898438 234.21875 260.746094 219.375 260.746094 201.0625 " fill-opacity="1" fill-rule="nonzero"/></g><path fill="#e18d37" d="M 226.945312 211.488281 C 220.941406 211.488281 216.074219 206.625 216.074219 200.617188 C 216.074219 194.617188 220.941406 189.75 226.945312 189.75 C 232.949219 189.75 237.816406 194.617188 237.816406 200.617188 C 237.816406 206.625 232.949219 211.488281 226.945312 211.488281 Z M 236.359375 191.992188 C 233.246094 189.898438 230.390625 186.996094 223.472656 188.007812 C 220.570312 188.433594 217.035156 191.742188 215.734375 194.378906 C 215.734375 194.378906 211.695312 200.300781 214.726562 205.792969 C 217.757812 211.28125 221.859375 213.953125 226.648438 212.941406 C 231.4375 211.933594 236.074219 212.292969 238.566406 205.863281 C 241.0625 199.433594 239.46875 194.089844 236.359375 191.992188 " fill-opacity="1" fill-rule="nonzero"/><g clip-path="url(#f6eae1b127)"><path fill="#cb7322" d="M 260.746094 201.085938 C 260.746094 194.082031 258.570312 187.589844 254.863281 182.238281 C 256.089844 185.800781 257.785156 190.792969 258.402344 192.996094 C 259.414062 196.605469 260.136719 208.019531 257.53125 212.066406 C 254.925781 216.109375 253.046875 222.613281 247.980469 225.933594 C 242.914062 229.257812 236.980469 234.457031 223.085938 232.871094 C 217.238281 232.203125 213.082031 230.765625 209.808594 229.066406 C 214.945312 232.339844 221.042969 234.242188 227.585938 234.242188 C 245.898438 234.242188 260.746094 219.398438 260.746094 201.085938 " fill-opacity="1" fill-rule="nonzero"/></g><path fill="#cb7322" d="M 226.886719 211.519531 C 220.882812 211.519531 216.019531 206.660156 216.019531 200.667969 C 216.019531 194.675781 220.882812 189.816406 226.886719 189.816406 C 232.890625 189.816406 237.757812 194.675781 237.757812 200.667969 C 237.757812 206.660156 232.890625 211.519531 226.886719 211.519531 Z M 237.703125 195.789062 C 235.855469 192.324219 229.453125 188.207031 226.085938 188.421875 C 222.722656 188.640625 223.046875 190.046875 221.09375 190.046875 C 221.09375 190.046875 217.292969 191.671875 216.316406 195.03125 C 215.339844 198.390625 213.40625 203.257812 216.316406 205.867188 C 219.226562 208.476562 221.410156 212.371094 227.332031 212.152344 C 233.25 211.9375 235.640625 208.976562 236.941406 206.554688 C 238.246094 204.132812 239.546875 199.257812 237.703125 195.789062 " fill-opacity="1" fill-rule="nonzero"/><path fill="#bce9fa" d="M 236.628906 209.734375 C 231.238281 216.542969 222.875 213.578125 218.363281 211.957031 C 213.851562 210.332031 213.523438 202.707031 213.742188 197.765625 C 213.960938 192.820312 218.914062 189.511719 218.914062 189.511719 C 226.285156 184.226562 237.730469 187.769531 239.160156 193.039062 C 240.589844 198.3125 242.019531 202.925781 236.628906 209.734375 Z M 257.207031 191.171875 C 253.007812 183.386719 254.332031 175.609375 243.882812 173.398438 C 233.4375 171.183594 222.746094 163.953125 208.066406 174.160156 C 208.066406 174.160156 202.296875 178.101562 201.636719 183.925781 C 200.976562 189.746094 193.238281 191.15625 195.816406 204.257812 C 198.394531 217.359375 200.0625 224.066406 208.222656 227.335938 C 216.386719 230.605469 219.085938 230.605469 226.539062 231.921875 C 233.988281 233.238281 241.78125 227.355469 249.109375 225.191406 C 256.4375 223.027344 254.34375 213.578125 257.207031 210.503906 C 260.066406 207.429688 261.40625 198.960938 257.207031 191.171875 " fill-opacity="1" fill-rule="nonzero"/><path fill="#69bdce" d="M 236.746094 209.753906 C 231.351562 216.5625 222.988281 213.597656 218.476562 211.976562 C 213.964844 210.351562 213.636719 202.722656 213.855469 197.78125 C 214.078125 192.839844 219.027344 189.53125 219.027344 189.53125 C 226.402344 184.246094 237.84375 187.789062 239.273438 193.058594 C 240.707031 198.332031 242.136719 202.945312 236.746094 209.753906 Z M 241.183594 192.457031 C 238.617188 187.1875 234.289062 183.085938 224.972656 184.257812 C 220.125 184.867188 218.222656 186.160156 215.070312 189.164062 C 215.070312 189.164062 210.742188 194.039062 211.839844 200.316406 C 212.941406 206.589844 213.160156 213.546875 222.328125 215.011719 C 231.5 216.476562 237.222656 215.523438 240.082031 209.886719 C 242.945312 204.246094 243.75 197.730469 241.183594 192.457031 " fill-opacity="1" fill-rule="nonzero"/><path fill="#a3e0f1" d="M 240.039062 210.027344 C 237.179688 215.667969 231.457031 216.617188 222.289062 215.152344 C 213.121094 213.6875 212.898438 206.734375 211.796875 200.457031 C 210.699219 194.183594 215.027344 189.304688 215.027344 189.304688 C 218.179688 186.304688 220.082031 185.007812 224.929688 184.402344 C 234.246094 183.230469 238.574219 187.328125 241.140625 192.601562 C 243.707031 197.875 242.902344 204.390625 240.039062 210.027344 Z M 255.886719 193.808594 C 252.695312 186.890625 251.59375 180.410156 249.175781 179.09375 C 246.753906 177.773438 239.160156 174.257812 232.449219 172.390625 C 225.734375 170.523438 219.265625 169.460938 211.621094 175.246094 C 211.621094 175.246094 205.527344 178.359375 204.167969 180.40625 C 202.050781 183.59375 203.449219 186.683594 199.65625 190.84375 C 195.867188 195.003906 197.238281 198.863281 198.777344 205.121094 C 200.316406 211.382812 206.039062 223.574219 213.191406 225.660156 C 220.34375 227.75 227.386719 232.03125 231.128906 230.492188 C 234.871094 228.957031 245.433594 225.660156 247.964844 222.257812 C 250.492188 218.851562 253.90625 213.46875 254.675781 210.175781 C 255.445312 206.878906 259.078125 200.730469 255.886719 193.808594 " fill-opacity="1" fill-rule="nonzero"/><path fill="#87d4e3" d="M 239.96875 210.128906 C 237.109375 215.769531 231.386719 216.71875 222.214844 215.253906 C 213.046875 213.789062 212.824219 206.835938 211.726562 200.558594 C 210.625 194.285156 214.953125 189.40625 214.953125 189.40625 C 218.109375 186.40625 220.011719 185.109375 224.855469 184.5 C 234.171875 183.328125 238.5 187.429688 241.070312 192.703125 C 243.636719 197.972656 242.828125 204.492188 239.96875 210.128906 Z M 254.566406 197.433594 C 252.914062 193.699219 250.054688 183.375 246.644531 181.507812 C 243.230469 179.640625 236.410156 176.785156 231.898438 174.808594 C 227.386719 172.832031 222.984375 172.941406 218.035156 174.808594 C 213.082031 176.675781 207.46875 178.214844 203.839844 185.792969 C 203.839844 185.792969 202.078125 188.539062 202.1875 191.285156 C 202.296875 194.027344 201.847656 198.421875 202.183594 203.253906 C 202.519531 208.089844 202.078125 212.480469 208.019531 216.214844 C 213.960938 219.949219 216.273438 224.234375 219.574219 224.34375 C 222.875 224.453125 232.476562 228.71875 241.03125 224.34375 C 249.585938 219.96875 247.855469 214.347656 250.714844 210.066406 C 253.574219 205.78125 256.214844 201.167969 254.566406 197.433594 " fill-opacity="1" fill-rule="nonzero"/><path fill="#e6f7fd" d="M 219.914062 216.140625 C 219.914062 216.140625 223.675781 217.65625 225.558594 218.089844 C 227.441406 218.523438 233.375 219.320312 235.257812 214.695312 C 235.257812 214.695312 233.519531 216.792969 231.058594 217.078125 C 228.597656 217.367188 226.570312 216.988281 225.050781 216.5625 C 223.53125 216.140625 221.722656 215.273438 219.914062 216.140625 " fill-opacity="1" fill-rule="nonzero"/><path fill="#caeef9" d="M 222.277344 215.269531 C 214.628906 214.050781 213.292969 208.953125 212.40625 203.667969 C 212.121094 204.179688 211.921875 204.851562 211.964844 205.707031 C 211.964844 205.707031 211.746094 212.257812 214.570312 213.535156 C 217.390625 214.8125 218.695312 216.4375 221.625 216.542969 C 224.554688 216.652344 232.355469 219.328125 235.296875 214.683594 C 232.167969 216.144531 227.875 216.164062 222.277344 215.269531 " fill-opacity="1" fill-rule="nonzero"/><path fill="#caeef9" d="M 217.273438 174.234375 C 217.273438 174.234375 219.488281 175.625 221.257812 174.234375 C 223.03125 172.847656 225.84375 171.519531 228.976562 172.074219 C 232.105469 172.625 234.871094 176.933594 236.308594 177.046875 C 237.75 177.15625 237.085938 175.84375 234.984375 174.234375 C 232.878906 172.625 231.378906 170.304688 228.976562 170.414062 C 226.570312 170.527344 219.597656 170.984375 217.273438 174.234375 " fill-opacity="1" fill-rule="nonzero"/><path fill="#caeef9" d="M 247.046875 177.699219 C 247.046875 177.699219 246.492188 178.921875 247.933594 180.910156 C 249.371094 182.898438 248.375 185.332031 250.367188 187.761719 C 252.359375 190.191406 255.679688 192.070312 256.125 196.046875 C 256.566406 200.023438 254.128906 205.546875 255.457031 206.210938 C 256.789062 206.875 258.445312 204.222656 258.335938 200.464844 C 258.226562 196.710938 257.449219 194.832031 255.238281 191.296875 C 253.023438 187.761719 253.132812 183.34375 251.695312 181.90625 C 250.257812 180.46875 248.042969 175.8125 247.046875 177.699219 " fill-opacity="1" fill-rule="nonzero"/><path fill="#caeef9" d="M 204.65625 185.441406 C 204.65625 185.441406 203.328125 187.652344 202.773438 189.527344 C 202.21875 191.40625 203.660156 198.367188 202.773438 202.785156 C 201.886719 207.207031 203.769531 211.625 201.886719 212.289062 C 200.007812 212.949219 199.34375 208.957031 199.453125 206.3125 C 199.566406 203.671875 196.109375 197.6875 199.441406 191.785156 C 202.773438 185.882812 203.214844 181.023438 206.09375 179.808594 C 208.972656 178.589844 208.085938 180.46875 207.644531 182.015625 C 207.203125 183.5625 205.761719 183.332031 204.65625 185.441406 " fill-opacity="1" fill-rule="nonzero"/><path fill="#caeef9" d="M 201.554688 215.824219 C 201.554688 215.824219 202.332031 222.121094 206.648438 223.886719 C 210.964844 225.65625 216.386719 226.316406 219.15625 227.976562 C 221.921875 229.632812 229.339844 230.957031 231.773438 230.515625 C 234.207031 230.074219 238.082031 227.976562 234.652344 226.648438 C 231.21875 225.324219 222.808594 227.644531 219.820312 224.660156 C 216.832031 221.679688 211.851562 221.566406 209.636719 219.800781 C 207.421875 218.03125 202.773438 213.613281 201.554688 215.824219 " fill-opacity="1" fill-rule="nonzero"/><path fill="#69bdce" d="M 249.890625 215.785156 C 248.785156 217.574219 247.160156 219.363281 245.882812 221.027344 C 244.214844 222.304688 242.425781 223.925781 240.632812 225.027344 C 238.75 226.328125 236.578125 227.484375 237.160156 224.59375 C 237.882812 221.269531 239.039062 215.925781 233.105469 217.804688 C 228.910156 219.246094 225.144531 223.148438 221.382812 225.605469 C 220.367188 226.183594 219.5 227.050781 218.195312 227.050781 C 217.039062 224.304688 221.671875 222.28125 222.394531 219.96875 C 223.117188 217.226562 221.671875 215.347656 218.777344 215.78125 C 214.722656 216.503906 210.527344 222.714844 206.328125 221.414062 C 208.066406 218.667969 211.539062 217.804688 213.277344 215.203125 C 214.722656 213.035156 214.867188 210.289062 214.578125 207.835938 C 213.566406 198.441406 202.277344 210.289062 197.644531 209.425781 C 197.644531 207.113281 201.839844 204.222656 203.289062 202.488281 C 205.316406 200.320312 207.921875 198.734375 209.511719 196.277344 C 211.539062 193.386719 212.117188 190.640625 208.066406 189.917969 C 204.738281 189.339844 201.261719 193.820312 198.800781 192.953125 C 199.816406 191.074219 202.277344 189.917969 203.722656 188.1875 C 204.980469 186.511719 206.503906 184.433594 207.257812 182.472656 C 209.222656 181.71875 211.304688 180.199219 212.980469 178.945312 C 214.71875 177.5 215.875 175.042969 217.757812 174.03125 C 218.625 176.488281 214.140625 179.953125 214.71875 183.277344 C 215.441406 187.324219 218.191406 186.746094 221.085938 184.722656 C 223.546875 183.132812 225.140625 180.535156 227.3125 178.511719 C 229.046875 177.066406 231.941406 172.875 234.257812 172.875 C 235.125 177.5 223.257812 188.769531 232.667969 189.78125 C 235.125 190.070312 237.875 189.921875 240.046875 188.480469 C 242.652344 186.746094 243.523438 183.277344 246.273438 181.542969 C 247.574219 185.734375 241.351562 189.921875 240.628906 193.96875 C 240.191406 196.859375 242.074219 198.304688 244.824219 197.582031 C 247.140625 196.859375 249.167969 192.234375 251.917969 193.390625 C 251.917969 194.691406 251.046875 195.558594 250.46875 196.570312 C 248.007812 200.328125 244.101562 204.082031 242.652344 208.273438 C 240.773438 214.195312 246.128906 213.039062 249.457031 212.316406 C 252.351562 211.738281 251.195312 213.90625 249.890625 215.785156 Z M 249.75 222.859375 C 249.75 222.859375 249.277344 223.835938 247.71875 224.886719 C 246.332031 225.050781 245.789062 224.613281 245.777344 223.824219 C 246.125 221.882812 248.4375 220.949219 248.496094 220.925781 C 249.40625 220.847656 249.929688 221.367188 249.75 222.859375 Z M 204.390625 181.640625 C 203.851562 181.222656 204.066406 180.535156 204.535156 179.957031 C 205.007812 179.378906 206.230469 179.382812 206.25 179.382812 C 206.695312 179.777344 206.65625 180.605469 206.292969 181.507812 C 205.535156 181.8125 204.832031 181.886719 204.390625 181.640625 Z M 253.652344 208.417969 C 251.773438 209.859375 249.3125 213.183594 246.5625 211.738281 C 244.535156 210.582031 244.96875 207.984375 245.695312 206.25 C 247.574219 201.914062 251.484375 198.015625 254.234375 194.113281 C 255.101562 192.957031 257.128906 188.625 253.945312 189.058594 C 253.074219 189.058594 252.351562 190.355469 251.773438 190.933594 C 250.179688 192.378906 248.152344 194.113281 246.128906 194.980469 C 244.535156 195.847656 241.785156 195.992188 241.640625 193.535156 C 241.496094 191.078125 245.257812 187.324219 246.5625 185.445312 C 247.574219 183.855469 250.902344 177.789062 246.996094 178.65625 C 244.679688 179.089844 242.507812 182.265625 241.0625 183.855469 C 239.613281 185.734375 232.8125 190.503906 231.074219 186.890625 C 230.351562 185.445312 232.234375 182.84375 232.957031 181.6875 C 233.96875 180.097656 239.324219 173.742188 236.574219 171.863281 C 235.417969 170.996094 232.8125 172.875 231.796875 173.453125 C 228.757812 175.332031 226.007812 177.5 223.691406 180.246094 C 222.535156 181.542969 220.074219 185.300781 217.902344 184 C 214.863281 181.832031 220.652344 176.632812 220.941406 174.464844 C 221.8125 168.542969 215.007812 174.320312 213.414062 175.765625 C 211.527344 177.246094 209.757812 179.222656 207.769531 180.65625 C 207.976562 179.640625 208.070312 178.511719 207.632812 178.070312 C 206.664062 177.226562 204.890625 178.199219 203.996094 179.046875 C 203.964844 179.074219 203.933594 179.105469 203.898438 179.136719 C 203.878906 179.15625 203.859375 179.175781 203.84375 179.195312 C 202.988281 180.085938 201.996094 181.871094 202.851562 182.84375 C 203.289062 183.285156 204.421875 183.1875 205.441406 182.980469 C 204.003906 184.96875 202.023438 186.730469 200.539062 188.617188 C 199.089844 190.207031 193.300781 197 199.238281 196.132812 C 201.40625 195.84375 206.617188 190.0625 208.789062 193.097656 C 210.09375 195.265625 206.328125 197.722656 205.027344 198.875 C 202.277344 201.1875 200.105469 203.933594 198.222656 206.96875 C 197.644531 207.980469 195.761719 210.578125 196.632812 211.734375 C 198.511719 214.480469 204.882812 209.132812 206.472656 208.125 C 207.632812 207.402344 210.238281 205.523438 211.683594 206.246094 C 215.304688 207.980469 210.527344 214.769531 208.644531 216.214844 C 207.050781 217.660156 203.867188 219.824219 203.433594 222.136719 C 202.566406 226.039062 208.644531 222.714844 210.238281 221.703125 C 212.117188 220.402344 215.882812 216.648438 218.34375 216.792969 C 220.800781 216.9375 220.65625 219.679688 219.789062 221.269531 C 218.921875 223.292969 217.183594 225.316406 215.738281 226.90625 C 215.15625 227.484375 213.855469 228.207031 213.855469 229.070312 C 213.421875 232.25 217.761719 230.226562 218.921875 229.363281 C 222.828125 226.617188 226.738281 222.714844 231.078125 220.835938 C 232.816406 220.113281 235.421875 219.679688 236.578125 221.703125 C 238.027344 224.449219 234.699219 226.90625 233.25 228.785156 C 232.238281 229.941406 230.210938 232.25 232.960938 232.105469 C 234.84375 231.960938 237.160156 229.070312 238.316406 227.914062 C 238.925781 227.378906 241.609375 224.925781 244.226562 223.074219 C 243.4375 224.160156 242.78125 225.421875 243.378906 226.1875 C 243.675781 226.585938 244.179688 226.636719 244.746094 226.511719 L 244.738281 226.511719 C 244.738281 226.511719 247.742188 226.253906 249.640625 224.359375 C 251.542969 222.460938 251.8125 219.109375 251.25 218.726562 L 251.25 218.730469 C 251.195312 218.652344 251.132812 218.585938 251.054688 218.527344 C 250.289062 217.929688 249.019531 218.585938 247.929688 219.375 C 249.785156 216.761719 252.246094 214.078125 252.785156 213.472656 C 253.945312 212.316406 256.839844 210.007812 256.984375 208.128906 C 257.128906 205.382812 254.8125 207.40625 253.652344 208.417969 " fill-opacity="1" fill-rule="nonzero"/><path fill="#faef9f" d="M 251.242188 214.992188 C 250.140625 216.785156 248.511719 218.574219 247.234375 220.238281 C 245.566406 221.515625 243.777344 223.136719 241.984375 224.238281 C 240.101562 225.535156 237.933594 226.691406 238.511719 223.800781 C 239.234375 220.480469 240.390625 215.136719 234.457031 217.011719 C 230.261719 218.457031 226.496094 222.359375 222.734375 224.8125 C 221.71875 225.390625 220.851562 226.257812 219.550781 226.257812 C 218.390625 223.515625 223.023438 221.492188 223.746094 219.179688 C 224.472656 216.433594 223.023438 214.554688 220.128906 214.988281 C 216.074219 215.710938 211.878906 221.925781 207.679688 220.625 C 209.417969 217.878906 212.890625 217.011719 214.628906 214.414062 C 216.074219 212.246094 216.21875 209.5 215.929688 207.042969 C 214.917969 197.652344 203.628906 209.5 198.996094 208.632812 C 198.996094 206.320312 203.195312 203.433594 204.640625 201.699219 C 206.667969 199.53125 209.273438 197.941406 210.863281 195.484375 C 212.890625 192.597656 213.46875 189.851562 209.417969 189.128906 C 206.089844 188.550781 202.613281 193.03125 200.152344 192.164062 C 201.167969 190.285156 203.628906 189.128906 205.074219 187.394531 C 206.332031 185.722656 207.855469 183.644531 208.609375 181.679688 C 210.574219 180.925781 212.65625 179.410156 214.332031 178.152344 C 216.070312 176.707031 217.230469 174.253906 219.109375 173.242188 C 219.980469 175.695312 215.492188 179.164062 216.070312 182.488281 C 216.792969 186.53125 219.542969 185.953125 222.441406 183.929688 C 224.898438 182.34375 226.492188 179.742188 228.664062 177.71875 C 230.398438 176.273438 233.292969 172.085938 235.609375 172.085938 C 236.480469 176.707031 224.609375 187.976562 234.019531 188.988281 C 236.480469 189.277344 239.230469 189.132812 241.398438 187.6875 C 244.003906 185.953125 244.875 182.488281 247.625 180.753906 C 248.925781 184.941406 242.703125 189.132812 241.980469 193.179688 C 241.546875 196.066406 243.425781 197.511719 246.175781 196.789062 C 248.492188 196.066406 250.519531 191.445312 253.269531 192.601562 C 253.269531 193.902344 252.402344 194.765625 251.820312 195.777344 C 249.363281 199.535156 245.453125 203.292969 244.003906 207.480469 C 242.125 213.40625 247.480469 212.25 250.808594 211.527344 C 253.703125 210.949219 252.546875 213.117188 251.242188 214.992188 Z M 251.101562 222.070312 C 251.101562 222.070312 250.628906 223.046875 249.070312 224.097656 C 247.6875 224.261719 247.140625 223.820312 247.128906 223.035156 C 247.476562 221.09375 249.789062 220.160156 249.847656 220.136719 C 250.757812 220.058594 251.28125 220.578125 251.101562 222.070312 Z M 205.742188 180.851562 C 205.203125 180.433594 205.417969 179.746094 205.886719 179.167969 C 206.359375 178.589844 207.582031 178.59375 207.601562 178.59375 C 208.046875 178.984375 208.007812 179.8125 207.644531 180.714844 C 206.886719 181.019531 206.183594 181.09375 205.742188 180.851562 Z M 255.003906 207.625 C 253.125 209.070312 250.664062 212.394531 247.914062 210.949219 C 245.886719 209.792969 246.320312 207.191406 247.046875 205.457031 C 248.925781 201.125 252.835938 197.222656 255.585938 193.324219 C 256.453125 192.167969 258.480469 187.832031 255.296875 188.265625 C 254.425781 188.265625 253.703125 189.566406 253.125 190.144531 C 251.53125 191.589844 249.507812 193.324219 247.480469 194.191406 C 245.886719 195.058594 243.136719 195.203125 242.992188 192.746094 C 242.847656 190.289062 246.609375 186.53125 247.914062 184.652344 C 248.925781 183.066406 252.257812 176.996094 248.347656 177.863281 C 246.03125 178.296875 243.859375 181.476562 242.414062 183.066406 C 240.964844 184.941406 234.164062 189.710938 232.425781 186.097656 C 231.703125 184.652344 233.585938 182.054688 234.308594 180.898438 C 235.320312 179.308594 240.675781 172.953125 237.925781 171.074219 C 236.769531 170.207031 234.164062 172.085938 233.148438 172.664062 C 230.109375 174.542969 227.359375 176.707031 225.042969 179.453125 C 223.886719 180.753906 221.425781 184.511719 219.253906 183.210938 C 216.214844 181.042969 222.003906 175.839844 222.292969 173.675781 C 223.164062 167.75 216.359375 173.53125 214.769531 174.976562 C 212.878906 176.457031 211.109375 178.433594 209.121094 179.867188 C 209.328125 178.851562 209.421875 177.71875 208.984375 177.28125 C 208.015625 176.4375 206.242188 177.40625 205.347656 178.253906 C 205.316406 178.285156 205.285156 178.3125 205.25 178.347656 C 205.230469 178.367188 205.214844 178.386719 205.195312 178.40625 C 204.339844 179.292969 203.347656 181.082031 204.203125 182.054688 C 204.640625 182.492188 205.777344 182.398438 206.792969 182.191406 C 205.355469 184.179688 203.375 185.941406 201.890625 187.828125 C 200.441406 189.417969 194.652344 196.207031 200.589844 195.339844 C 202.757812 195.050781 207.96875 189.273438 210.140625 192.308594 C 211.445312 194.472656 207.679688 196.929688 206.378906 198.085938 C 203.628906 200.398438 201.457031 203.144531 199.574219 206.175781 C 198.996094 207.1875 197.113281 209.789062 197.984375 210.945312 C 199.863281 213.6875 206.234375 208.34375 207.824219 207.332031 C 208.984375 206.609375 211.589844 204.730469 213.035156 205.453125 C 216.652344 207.1875 211.878906 213.980469 209.996094 215.421875 C 208.402344 216.867188 205.21875 219.035156 204.785156 221.347656 C 203.917969 225.246094 209.996094 221.925781 211.589844 220.914062 C 213.46875 219.613281 217.234375 215.855469 219.695312 216 C 222.15625 216.144531 222.011719 218.890625 221.140625 220.480469 C 220.273438 222.503906 218.535156 224.523438 217.089844 226.113281 C 216.511719 226.691406 215.207031 227.414062 215.207031 228.28125 C 214.773438 231.460938 219.113281 229.4375 220.273438 228.570312 C 224.179688 225.824219 228.089844 221.925781 232.429688 220.046875 C 234.167969 219.324219 236.773438 218.890625 237.933594 220.914062 C 239.378906 223.660156 236.050781 226.113281 234.601562 227.992188 C 233.589844 229.148438 231.5625 231.460938 234.3125 231.316406 C 236.195312 231.171875 238.511719 228.28125 239.667969 227.125 C 240.277344 226.585938 242.960938 224.132812 245.578125 222.28125 C 244.789062 223.371094 244.132812 224.632812 244.730469 225.394531 C 245.027344 225.792969 245.53125 225.84375 246.097656 225.71875 L 246.089844 225.722656 C 246.089844 225.722656 249.09375 225.464844 250.992188 223.566406 C 252.894531 221.671875 253.164062 218.320312 252.601562 217.9375 C 252.546875 217.863281 252.484375 217.792969 252.40625 217.734375 C 251.640625 217.140625 250.375 217.796875 249.28125 218.582031 C 251.136719 215.96875 253.597656 213.289062 254.136719 212.683594 C 255.296875 211.527344 258.191406 209.214844 258.335938 207.335938 C 258.480469 204.59375 256.164062 206.613281 255.003906 207.625 " fill-opacity="1" fill-rule="nonzero"/><path fill="#fef9d1" d="M 214.648438 214.394531 C 216.097656 212.230469 216.242188 209.484375 215.949219 207.027344 C 214.9375 197.636719 203.648438 209.484375 199.015625 208.617188 C 199.015625 206.304688 203.214844 203.414062 204.660156 201.683594 C 204.972656 201.347656 205.304688 201.027344 205.640625 200.714844 C 204.929688 201.335938 204.222656 201.964844 203.574219 202.65625 C 202.511719 203.933594 199.964844 205.832031 198.6875 207.667969 C 198.414062 208.148438 198.148438 208.667969 197.976562 209.167969 C 197.945312 209.3125 197.929688 209.453125 197.929688 209.59375 C 202.5625 210.460938 213.851562 198.613281 214.867188 208.003906 C 215.15625 210.460938 215.011719 213.203125 213.5625 215.371094 C 213.351562 215.6875 213.117188 215.976562 212.859375 216.246094 C 213.539062 215.710938 214.164062 215.121094 214.648438 214.394531 " fill-opacity="1" fill-rule="nonzero"/><path fill="#fef9d1" d="M 199.089844 193.121094 C 201.546875 193.988281 205.023438 189.511719 208.351562 190.089844 C 212.40625 190.8125 211.824219 193.554688 209.800781 196.445312 C 209.1875 197.386719 208.429688 198.199219 207.609375 198.96875 C 208.832031 197.902344 210.011719 196.816406 210.886719 195.46875 C 212.910156 192.582031 213.492188 189.835938 209.4375 189.113281 C 206.109375 188.535156 202.632812 193.015625 200.175781 192.148438 C 200.417969 191.691406 200.75 191.28125 201.132812 190.890625 C 200.304688 191.566406 199.546875 192.269531 199.089844 193.121094 " fill-opacity="1" fill-rule="nonzero"/><path fill="#fef9d1" d="M 204.007812 188.355469 C 203.875 188.515625 203.730469 188.671875 203.578125 188.824219 C 204.132812 188.371094 204.660156 187.902344 205.09375 187.378906 C 206.222656 185.878906 207.554688 184.058594 208.363281 182.285156 C 208.089844 182.414062 207.816406 182.535156 207.542969 182.640625 C 206.789062 184.601562 205.269531 186.679688 204.007812 188.355469 " fill-opacity="1" fill-rule="nonzero"/><path fill="#fef9d1" d="M 254.230469 189.226562 C 257.414062 188.792969 255.386719 193.125 254.519531 194.28125 C 251.769531 198.183594 247.863281 202.085938 245.980469 206.417969 C 245.257812 208.152344 244.820312 210.753906 246.847656 211.910156 C 246.992188 211.984375 247.132812 212.042969 247.273438 212.09375 C 248.253906 212.035156 249.300781 211.835938 250.242188 211.636719 C 251.148438 211.101562 252 210.308594 252.777344 209.59375 C 251.332031 210.832031 249.691406 211.855469 247.933594 210.933594 C 245.90625 209.777344 246.34375 207.175781 247.066406 205.441406 C 248.945312 201.109375 252.855469 197.207031 255.605469 193.308594 C 256.472656 192.152344 258.5 187.816406 255.316406 188.25 C 254.757812 188.25 254.261719 188.785156 253.824219 189.320312 C 253.957031 189.261719 254.089844 189.226562 254.230469 189.226562 " fill-opacity="1" fill-rule="nonzero"/><path fill="#fef9d1" d="M 232.085938 173.621094 C 233.097656 173.042969 235.703125 171.167969 236.859375 172.03125 C 239.613281 173.910156 234.253906 180.269531 233.242188 181.855469 C 232.519531 183.011719 230.636719 185.613281 231.359375 187.058594 C 232.96875 190.40625 238.925781 186.558594 240.945312 184.484375 C 238.394531 186.539062 233.824219 188.949219 232.445312 186.082031 C 231.722656 184.640625 233.605469 182.039062 234.328125 180.882812 C 235.339844 179.292969 240.695312 172.9375 237.945312 171.058594 C 236.789062 170.191406 234.183594 172.070312 233.171875 172.648438 C 231.058594 173.949219 229.09375 175.398438 227.3125 177.078125 C 228.796875 175.804688 230.394531 174.667969 232.085938 173.621094 " fill-opacity="1" fill-rule="nonzero"/><path fill="#fef9d1" d="M 213.703125 175.933594 C 215.292969 174.488281 222.097656 168.710938 221.230469 174.632812 C 220.9375 176.800781 215.148438 182.003906 218.1875 184.167969 C 219.460938 184.929688 220.828125 183.960938 221.976562 182.765625 C 221.101562 183.410156 220.164062 183.726562 219.273438 183.195312 C 216.234375 181.027344 222.023438 175.824219 222.3125 173.660156 C 223.183594 167.734375 216.378906 173.511719 214.789062 174.957031 C 214.105469 175.492188 213.441406 176.09375 212.773438 176.707031 C 213.082031 176.441406 213.390625 176.179688 213.703125 175.933594 " fill-opacity="1" fill-rule="nonzero"/><path fill="#fef9d1" d="M 207.917969 178.242188 C 208.355469 178.679688 208.261719 179.8125 208.054688 180.828125 C 208.949219 180.179688 209.800781 179.425781 210.636719 178.65625 C 210.148438 179.078125 209.652344 179.484375 209.140625 179.851562 C 209.347656 178.835938 209.441406 177.703125 209.003906 177.265625 C 208.035156 176.421875 206.261719 177.390625 205.367188 178.238281 C 205.335938 178.269531 205.304688 178.296875 205.273438 178.332031 C 205.25 178.351562 205.234375 178.371094 205.214844 178.390625 C 205.132812 178.476562 205.050781 178.570312 204.96875 178.667969 C 205.90625 178.03125 207.160156 177.578125 207.917969 178.242188 " fill-opacity="1" fill-rule="nonzero"/><path fill="#fef9d1" d="M 255.027344 207.609375 C 254.578125 207.953125 254.101562 208.402344 253.59375 208.867188 C 253.710938 208.765625 253.828125 208.671875 253.941406 208.585938 C 255.097656 207.574219 257.414062 205.550781 257.269531 208.296875 C 257.125 210.175781 254.230469 212.488281 253.070312 213.640625 C 252.53125 214.25 250.074219 216.929688 248.21875 219.542969 C 249.308594 218.753906 250.574219 218.097656 251.339844 218.695312 C 251.421875 218.753906 251.484375 218.824219 251.535156 218.898438 L 251.539062 218.894531 C 252.070312 219.261719 251.851562 222.296875 250.203125 224.226562 C 250.484375 224.027344 250.761719 223.804688 251.015625 223.550781 C 252.914062 221.65625 253.183594 218.304688 252.621094 217.921875 C 252.570312 217.847656 252.503906 217.777344 252.425781 217.71875 C 251.660156 217.125 250.394531 217.78125 249.304688 218.570312 C 251.15625 215.953125 253.617188 213.273438 254.15625 212.667969 C 255.316406 211.511719 258.210938 209.199219 258.355469 207.320312 C 258.5 204.578125 256.183594 206.597656 255.027344 207.609375 " fill-opacity="1" fill-rule="nonzero"/><path fill="#fef9d1" d="M 240.917969 225.195312 C 242.710938 224.09375 244.503906 222.472656 246.171875 221.199219 C 246.25 221.09375 246.335938 220.988281 246.417969 220.882812 C 244.996094 222.023438 243.5 223.300781 242.003906 224.222656 C 240.125 225.519531 237.953125 226.675781 238.53125 223.789062 C 239.253906 220.464844 240.410156 215.117188 234.476562 216.996094 C 230.28125 218.441406 226.515625 222.34375 222.753906 224.796875 C 221.738281 225.375 220.871094 226.242188 219.570312 226.242188 C 218.410156 223.5 223.042969 221.476562 223.765625 219.164062 C 224.492188 216.417969 223.042969 214.539062 220.148438 214.972656 C 216.097656 215.695312 211.898438 221.910156 207.699219 220.609375 C 207.957031 220.203125 208.253906 219.84375 208.574219 219.507812 C 207.828125 220.09375 207.140625 220.753906 206.613281 221.585938 C 210.8125 222.882812 215.011719 216.671875 219.0625 215.949219 C 221.957031 215.515625 223.40625 217.394531 222.683594 220.140625 C 221.957031 222.449219 217.324219 224.472656 218.484375 227.21875 C 219.785156 227.21875 220.65625 226.351562 221.667969 225.773438 C 225.429688 223.316406 229.195312 219.417969 233.394531 217.972656 C 237.328125 216.726562 238.144531 218.660156 238.035156 221.074219 C 238.605469 222.320312 238.210938 223.507812 237.480469 224.605469 C 237.46875 224.65625 237.457031 224.710938 237.445312 224.761719 C 236.867188 227.652344 239.039062 226.496094 240.917969 225.195312 " fill-opacity="1" fill-rule="nonzero"/><path fill="#fef9d1" d="M 247.28125 178.824219 C 251.191406 177.957031 247.863281 184.023438 246.847656 185.613281 C 246.058594 186.753906 244.367188 188.582031 243.1875 190.394531 C 242.609375 191.324219 242.164062 192.246094 242 193.164062 C 241.964844 193.398438 241.949219 193.617188 241.945312 193.832031 C 242.179688 196.148438 244.851562 196 246.414062 195.148438 C 248.441406 194.28125 250.464844 192.546875 252.058594 191.105469 C 252.085938 191.078125 252.113281 191.050781 252.136719 191.019531 C 250.738281 192.230469 249.121094 193.480469 247.5 194.175781 C 245.90625 195.039062 243.15625 195.183594 243.011719 192.730469 C 242.867188 190.273438 246.632812 186.515625 247.933594 184.640625 C 248.945312 183.050781 252.277344 176.980469 248.367188 177.847656 C 247.273438 178.054688 246.210938 178.875 245.238281 179.851562 C 245.898438 179.339844 246.582031 178.953125 247.28125 178.824219 " fill-opacity="1" fill-rule="nonzero"/><path fill="#fef9d1" d="M 204.824219 180.128906 C 204.351562 180.703125 204.136719 181.390625 204.675781 181.8125 C 205.117188 182.054688 205.820312 181.980469 206.578125 181.675781 C 206.679688 181.425781 206.753906 181.179688 206.800781 180.945312 C 206.390625 181.011719 206.027344 180.984375 205.761719 180.835938 C 205.382812 180.542969 205.382812 180.117188 205.574219 179.691406 C 205.285156 179.773438 205 179.910156 204.824219 180.128906 " fill-opacity="1" fill-rule="nonzero"/><path fill="#fef9d1" d="M 249.09375 224.082031 C 247.707031 224.246094 247.160156 223.804688 247.152344 223.019531 C 247.246094 222.476562 247.5 222.011719 247.8125 221.625 C 247.113281 222.09375 246.265625 222.875 246.066406 223.992188 C 246.074219 224.78125 246.621094 225.21875 248.007812 225.054688 C 248.671875 224.605469 249.136719 224.171875 249.453125 223.820312 C 249.339844 223.90625 249.21875 223.992188 249.09375 224.082031 " fill-opacity="1" fill-rule="nonzero"/><g clip-path="url(#067fd0c885)"><path fill="#95d9e8" d="M 108.898438 186.277344 C 113.394531 186.277344 117.703125 182.269531 117.492188 177.589844 C 117.28125 172.886719 113.710938 168.902344 108.898438 168.902344 L 75.472656 168.902344 C 75.234375 168.902344 74.996094 168.929688 74.757812 168.929688 C 74.519531 168.957031 74.28125 168.957031 74.042969 168.929688 C 73.699219 168.902344 73.355469 168.875 73.011719 168.902344 C 68.410156 169.117188 64.363281 172.726562 64.417969 177.589844 C 64.65625 195.527344 64.867188 213.464844 65.105469 231.402344 C 65.15625 235.945312 69.019531 240.300781 73.699219 240.089844 C 78.300781 239.875 82.347656 236.265625 82.292969 231.402344 C 82.214844 226.109375 82.160156 220.839844 82.082031 215.546875 C 82.054688 213.355469 83.800781 211.566406 85.96875 211.566406 L 98.769531 211.566406 C 103.265625 211.566406 107.574219 207.582031 107.363281 202.878906 C 107.152344 198.171875 103.582031 194.191406 98.769531 194.191406 L 85.652344 194.191406 C 83.535156 194.191406 81.792969 192.453125 81.765625 190.3125 C 81.765625 190.289062 81.765625 190.261719 81.765625 190.234375 C 81.738281 188.042969 83.484375 186.25 85.652344 186.25 Z M 108.898438 186.277344 " fill-opacity="1" fill-rule="nonzero"/><path fill="#ffffff" d="M 117.886719 177.5625 C 117.648438 172.484375 113.710938 168.5 108.898438 168.5 L 75.472656 168.5 C 75.234375 168.5 74.996094 168.5 74.703125 168.527344 C 74.492188 168.554688 74.28125 168.554688 74.070312 168.527344 C 73.726562 168.5 73.355469 168.5 72.984375 168.5 C 67.90625 168.742188 63.96875 172.726562 64.019531 177.589844 L 64.683594 231.402344 C 64.707031 233.859375 65.820312 236.347656 67.671875 238.109375 C 69.28125 239.660156 71.292969 240.488281 73.355469 240.488281 C 73.460938 240.488281 73.59375 240.488281 73.699219 240.488281 C 78.804688 240.25 82.742188 236.265625 82.664062 231.402344 L 82.480469 215.546875 C 82.480469 214.585938 82.824219 213.703125 83.484375 213.035156 C 84.144531 212.367188 85.019531 211.992188 85.96875 211.992188 L 98.769531 211.992188 C 101.175781 211.992188 103.582031 210.925781 105.355469 209.054688 C 106.992188 207.316406 107.867188 205.125 107.761719 202.90625 C 107.523438 197.824219 103.582031 193.84375 98.769531 193.84375 L 85.652344 193.84375 C 83.75 193.84375 82.1875 192.292969 82.160156 190.367188 L 82.160156 190.289062 C 82.160156 189.324219 82.503906 188.441406 83.167969 187.773438 C 83.828125 187.105469 84.699219 186.730469 85.652344 186.730469 L 108.898438 186.730469 C 111.304688 186.730469 113.710938 185.664062 115.480469 183.792969 C 117.121094 182 117.96875 179.808594 117.886719 177.5625 Z M 114.898438 183.175781 C 113.339844 184.808594 111.199219 185.824219 109.082031 185.875 L 85.652344 185.875 C 84.488281 185.875 83.429688 186.332031 82.609375 187.160156 C 81.792969 187.988281 81.367188 189.085938 81.367188 190.261719 L 81.367188 190.339844 C 81.394531 192.691406 83.324219 194.617188 85.652344 194.617188 L 98.769531 194.617188 C 103.160156 194.617188 106.753906 198.253906 106.964844 202.929688 C 107.046875 204.9375 106.277344 206.914062 104.773438 208.492188 C 103.183594 210.175781 100.9375 211.191406 98.769531 211.191406 L 85.96875 211.191406 C 84.804688 211.191406 83.75 211.644531 82.929688 212.476562 C 82.109375 213.304688 81.6875 214.398438 81.6875 215.574219 L 81.898438 231.425781 C 81.949219 235.863281 78.355469 239.5 73.671875 239.714844 C 71.714844 239.792969 69.785156 239.046875 68.226562 237.574219 C 66.53125 235.972656 65.5 233.671875 65.476562 231.425781 L 64.8125 177.589844 C 64.761719 173.152344 68.359375 169.515625 73.039062 169.304688 C 73.144531 169.304688 73.25 169.304688 73.328125 169.304688 C 73.566406 169.304688 73.777344 169.304688 74.015625 169.328125 C 74.28125 169.355469 74.546875 169.355469 74.808594 169.328125 C 75.046875 169.328125 75.257812 169.304688 75.472656 169.304688 L 108.871094 169.304688 C 113.261719 169.304688 116.855469 172.9375 117.070312 177.617188 C 117.175781 179.621094 116.40625 181.601562 114.898438 183.175781 Z M 114.898438 183.175781 " fill-opacity="1" fill-rule="nonzero"/></g><path fill="#f2eded" d="M 114.980469 177.164062 C 115.085938 179.753906 111.09375 179.730469 111.011719 177.164062 C 110.960938 175.53125 109.691406 174.4375 108.105469 174.460938 C 105.539062 174.488281 105.539062 170.480469 108.105469 170.453125 C 111.910156 170.398438 114.847656 173.367188 114.980469 177.164062 Z M 111.09375 180.074219 C 108.527344 180.074219 108.527344 184.085938 111.09375 184.085938 C 113.65625 184.085938 113.65625 180.074219 111.09375 180.074219 Z M 100.011719 196.167969 C 97.632812 195.234375 96.601562 199.109375 98.953125 200.042969 C 101.042969 200.847656 101.441406 203.519531 100.011719 205.097656 C 98.292969 206.996094 101.070312 209.828125 102.816406 207.929688 C 106.410156 203.972656 104.878906 198.066406 100.011719 196.167969 Z M 76.371094 224.824219 C 76.503906 226.75 76.742188 228.835938 76.054688 230.679688 C 75.65625 231.773438 74.703125 233.085938 73.433594 233.21875 C 72.378906 233.324219 71.453125 234.046875 71.453125 235.222656 C 71.453125 236.210938 72.378906 237.335938 73.433594 237.226562 C 75.945312 236.960938 78.011719 235.542969 79.226562 233.273438 C 80.628906 230.679688 80.523438 227.65625 80.335938 224.796875 C 80.179688 222.257812 76.210938 222.257812 76.371094 224.824219 Z M 78.035156 221.777344 C 80.601562 221.777344 80.601562 217.765625 78.035156 217.765625 C 75.472656 217.765625 75.472656 221.777344 78.035156 221.777344 Z M 78.035156 221.777344 " fill-opacity="1" fill-rule="nonzero"/><g clip-path="url(#6554d89734)"><path fill="#f27f9d" d="M 324.320312 203.925781 C 324.027344 183.640625 306.363281 167.066406 284.660156 166.71875 C 281.972656 166.675781 279.339844 166.878906 276.792969 167.304688 C 271.492188 168.195312 267.640625 172.519531 267.640625 177.554688 L 267.640625 230.046875 C 267.640625 236.039062 272.394531 241.109375 278.753906 241.875 C 280.457031 242.082031 282.191406 242.1875 283.957031 242.1875 C 306.4375 242.1875 324.628906 225.007812 324.320312 203.925781 Z M 291.347656 216.988281 C 286.949219 216.988281 283.378906 210.914062 283.378906 203.414062 C 283.378906 195.921875 286.949219 189.84375 291.347656 189.84375 C 295.75 189.84375 299.320312 195.917969 299.320312 203.414062 C 299.320312 210.914062 295.753906 216.988281 291.347656 216.988281 Z M 291.347656 216.988281 " fill-opacity="1" fill-rule="nonzero"/><path fill="#ffffff" d="M 283.960938 242.621094 C 283.957031 242.621094 283.957031 242.621094 283.957031 242.621094 C 282.1875 242.621094 280.417969 242.515625 278.695312 242.308594 C 272.128906 241.515625 267.179688 236.246094 267.179688 230.046875 L 267.179688 177.554688 C 267.179688 172.296875 271.1875 167.804688 276.714844 166.875 C 279.320312 166.441406 281.996094 166.238281 284.667969 166.28125 C 295.28125 166.453125 305.289062 170.445312 312.84375 177.535156 C 320.394531 184.625 324.636719 193.996094 324.78125 203.921875 C 324.929688 214.121094 320.824219 223.757812 313.230469 231.058594 C 305.476562 238.515625 295.082031 242.621094 283.960938 242.621094 Z M 283.953125 167.148438 C 281.574219 167.148438 279.195312 167.347656 276.875 167.738281 C 271.789062 168.589844 268.097656 172.722656 268.097656 177.554688 L 268.097656 230.046875 C 268.097656 235.808594 272.703125 240.707031 278.808594 241.441406 C 280.496094 241.644531 282.230469 241.75 283.957031 241.75 C 283.957031 241.75 283.957031 241.75 283.960938 241.75 C 294.835938 241.75 304.996094 237.738281 312.578125 230.445312 C 320 223.3125 324.007812 213.894531 323.859375 203.933594 C 323.574219 183.996094 305.980469 167.496094 284.652344 167.15625 C 284.417969 167.152344 284.1875 167.148438 283.953125 167.148438 Z M 291.347656 217.421875 C 286.699219 217.421875 282.917969 211.140625 282.917969 203.414062 C 282.917969 195.691406 286.699219 189.410156 291.347656 189.410156 C 296 189.410156 299.78125 195.691406 299.78125 203.414062 C 299.78125 211.140625 296 217.421875 291.347656 217.421875 Z M 291.347656 190.28125 C 287.207031 190.28125 283.839844 196.171875 283.839844 203.414062 C 283.839844 210.660156 287.207031 216.550781 291.347656 216.550781 C 295.492188 216.550781 298.859375 210.660156 298.859375 203.414062 C 298.863281 196.171875 295.492188 190.28125 291.347656 190.28125 Z M 291.347656 190.28125 " fill-opacity="1" fill-rule="nonzero"/></g><path fill="#f2eded" d="M 314.386719 195.746094 C 312.496094 189.273438 308.226562 183.597656 302.320312 179.875 C 299.863281 178.328125 302.167969 174.550781 304.640625 176.109375 C 311.546875 180.460938 316.605469 187 318.824219 194.585938 C 319.613281 197.300781 315.175781 198.449219 314.386719 195.746094 Z M 320.476562 200.96875 C 320.460938 200.679688 320.371094 200.410156 320.199219 200.160156 C 320.054688 199.90625 319.859375 199.699219 319.609375 199.546875 C 319.386719 199.355469 319.125 199.226562 318.828125 199.160156 C 318.621094 199.132812 318.417969 199.105469 318.214844 199.082031 C 317.800781 199.082031 317.414062 199.183594 317.054688 199.375 C 316.898438 199.492188 316.746094 199.605469 316.585938 199.71875 C 316.300781 199.992188 316.105469 200.308594 315.996094 200.679688 C 315.945312 200.808594 315.898438 200.933594 315.847656 201.0625 C 315.753906 201.355469 315.738281 201.640625 315.808594 201.933594 C 315.824219 202.222656 315.914062 202.492188 316.082031 202.742188 C 316.226562 202.996094 316.421875 203.203125 316.675781 203.355469 C 316.894531 203.546875 317.160156 203.675781 317.457031 203.746094 L 318.070312 203.824219 C 318.484375 203.824219 318.871094 203.722656 319.230469 203.527344 C 319.382812 203.414062 319.539062 203.300781 319.695312 203.1875 C 319.980469 202.914062 320.175781 202.59375 320.289062 202.222656 C 320.335938 202.09375 320.382812 201.96875 320.433594 201.839844 C 320.53125 201.550781 320.542969 201.261719 320.476562 200.96875 Z M 288.699219 219.796875 C 285.394531 218.828125 282.882812 216.339844 281.945312 213.1875 C 281.144531 210.488281 276.707031 211.632812 277.511719 214.347656 C 278.890625 218.976562 282.640625 222.585938 287.480469 224.007812 C 290.3125 224.835938 291.523438 220.628906 288.699219 219.796875 Z M 293.9375 219.234375 C 290.980469 219.234375 290.976562 223.597656 293.9375 223.597656 C 296.898438 223.597656 296.902344 219.234375 293.9375 219.234375 Z M 293.9375 219.234375 " fill-opacity="1" fill-rule="nonzero"/></svg>